<svg xmlns="http://www.w3.org/2000/svg" width="1173" height="360" viewBox="0 0 1173 360">
  <path id="heelo" d="M0,0H9l1,5,1.7-.07C27.158,4.582,42.729,8.137,57,14l3.672,1.449,4.078,1.613,1.973.781A96.168,96.168,0,0,1,76,22l1-3c3.555-.323,5.376-.455,8.313,1.688C87,23,87,23,87.379,25.426c.758,3.142,1.772,4.049,4.246,6.074l2.184,1.8c2.487,1.924,5.037,3.734,7.617,5.531A51.745,51.745,0,0,1,108,45q2.217,2.189,4.438,4.375A169.465,169.465,0,0,1,129,69l1.676,2.113C132,73,132,73,132,75l2.75-.187C138,75,138,75,140.375,76.125,142,78,142,78,142.25,81.188c-.083.928-.165,1.856-.25,2.813l2.313.688c3.3,1.612,4.252,2.964,5.687,6.313-.3,1.34-.643,2.673-1,4-.662,8.451.591,15.912,3,24,3.962-1.536,5.856-4.006,8.438-7.312A111.775,111.775,0,0,1,170,101q3.926-4.36,7.793-8.77L180,90h2l.688-1.812c1.663-2.773,3.519-3.62,6.312-5.187l1.324-1.395a30.8,30.8,0,0,1,7.051-4.73l2.836-1.57c7.29-3.41,17.21-3.533,25.043-1.809A25.977,25.977,0,0,1,230,76l2.012,1.137c7.294,4.274,11.9,9.859,16.551,16.8l1.419,2.092Q252,99.008,254,102l2.227,3.309c1.631,2.475,3.123,5,4.578,7.578,3.929,6.947,7.909,13.856,12.347,20.492C274,135,274,135,274,138h2a52.6,52.6,0,0,1,3.313,5.063c2.109,3.423,4.229,6.769,6.625,10C288,156,288,156,288,158h2c1.333,1.489,2.592,3.043,3.813,4.625l2.164,2.77L298,168a110.575,110.575,0,0,0,16.188,16.25L315.8,185.6A32.368,32.368,0,0,0,322,190v2l3-.027q14.016-.122,28.03-.18,7.206-.031,14.41-.1,6.954-.064,13.908-.078,2.652-.01,5.3-.043c2.478-.029,4.955-.033,7.433-.031l2.212-.044c4.862.04,7.285,1.057,10.7,4.5q2.076,2.947,4,6,2.385,3.156,4.828,6.266C417,210,417,210,417,212h2c2.432,3.367,3,4.734,3,9l2.688.75C428,223,428,223,430.5,225.063c9.422,7.3,31.165,2.916,42.227,1.925l3.309-.286q3.982-.347,7.964-.7-.092-15.907-.236-31.815-.066-7.388-.11-14.774-.039-7.128-.117-14.258-.025-2.72-.035-5.438c-.009-2.541-.037-5.08-.07-7.62,0-.749,0-1.5.005-2.269-.114-6.305-2.117-9.53-6.437-13.826a36.529,36.529,0,0,1-2.062-3.937l-.973-2.028c-.319-.671-.637-1.343-.965-2.035l-1.133-1.773c-1.285-3.3-.943-6.453-.679-9.914.048-.711.1-1.421.146-2.153A48.607,48.607,0,0,1,475,99h2c.206-.846.413-1.691.625-2.562,1.5-3.739,3.317-5.851,6-8.77,1.562-1.7,1.562-1.7,2.309-4.418,1.4-2.975,3.208-3.344,6.191-4.441,3.884-1.678,6.854-4.666,9.644-7.8,2.717-2.45,5.237-3.439,8.665-4.7l3.371-1.262A55.3,55.3,0,0,1,522,63V60l20-4V54c25.3-3.692,51.692-7.364,76.137,2.336A36.369,36.369,0,0,0,626,58v2l2.219.348a23.775,23.775,0,0,1,7.281,3.09A56.6,56.6,0,0,0,645,68v3l2.25.688c3.3,1.577,4.5,3.454,6.75,6.313l3.188,2c2.812,2,2.812,2,3.687,4.75.041.743.083,1.485.125,2.25h2l1.242,2.992,1.633,3.883.816,1.973c1.193,2.822,2.122,4.965,4.309,7.152a106.016,106.016,0,0,1-.187,12.438c-.032,1.158-.064,2.316-.1,3.509-.045,1.11-.089,2.219-.135,3.362-.039,1.019-.078,2.037-.118,3.087-.526,2.953-1.22,3.721-3.464,5.6a29.547,29.547,0,0,0-2,4.75c-.335.879-.67,1.758-1.016,2.664L663,141c-.977,2.344-1.987,4.671-3,7h-3l-1,4h-2l-.75,2.25c-1.35,2.97-2.968,4.468-5.25,6.75l-.5,2.125L647,165a36.724,36.724,0,0,1-4,2c20.553.308,41,.344,61.5-1.375l2.345-.192c7.034-.586,13.972-1.2,20.839-2.911,5.454-1.229,11.033-1.869,16.566-2.647l3.8-.551,3.656-.519,3.3-.47A58.191,58.191,0,0,1,763,158v-2l2-.4c11.864-2.365,23.527-4.742,35-8.6q3.091-.945,6.188-1.875C817.937,141.5,829.66,137.771,841,133c6.836-2.835,13.756-5.352,20.745-7.78,3.952-1.38,7.836-2.837,11.693-4.47A64.079,64.079,0,0,1,888,117v-2c20.006-4.675,40.6-8.8,59.273,2.359C961.406,126.711,970.464,138,974,155a67.047,67.047,0,0,1-2.737,32.27c-2.512,7.987-2.706,15.62-2.7,23.932q-.013,2.249-.031,4.5-.042,6.055-.043,12.11-.015,6.345-.06,12.692-.066,11.994-.1,23.989-.042,13.667-.117,27.331Q968.084,319.91,968,348h2v4h11v8H-192v-8l2.655.023q12.4.093,24.806.052c4.251-.013,8.5-.01,12.752.031q6.157.059,12.313,0,2.345-.009,4.691.031c8.58.421,8.58.421,16.029-3.054A37,37,0,0,0-115,342q1.181-2.285,2.375-4.562c.536-1.135,1.073-2.269,1.625-3.438h2c.247-.866.5-1.733.75-2.625A40.05,40.05,0,0,1-103,322c2.757-4.468,5.441-8.978,8-13.562,1.6-2.757,3.275-5.365,5.063-8A72.748,72.748,0,0,0-84,290h2l1-7-3.25-1.75A31.324,31.324,0,0,1-92,275l-2.25-1.625L-96,272v-2l-1.687-.687c-2.993-1.7-4.928-3.821-7.312-6.313q-3.112-3.07-6.23-6.133A24.381,24.381,0,0,1-115,252c-.247,1.072-.5,2.145-.75,3.25-1.509,4.527-3.231,6.4-7.125,9A15.03,15.03,0,0,1-131,265c-3.245-1.789-6.317-3.634-8-7-.07-1.874-.084-3.75-.063-5.625.01-1,.019-2.006.028-3.039.011-.771.023-1.542.035-2.336h-2a19.171,19.171,0,0,1,0-6c2.173-2.573,3.98-4.49,7-6q.51-3,1-6l2-2c-.577-1.155-1.155-2.31-1.75-3.5L-135,219l-.939-1.724a66.726,66.726,0,0,1-5.749-16.026c-.212-.837-.424-1.673-.642-2.535q-.848-3.354-1.67-6.715-.5-2-1-4l-3.625.25a19.881,19.881,0,0,1-7.75-1.5c-4.076-4.27-4-9.058-4.625-14.75-.2-.9-.4-1.789-.613-2.711C-162,167-162,167-160.875,164.313c2.12-2.615,3.687-3.365,6.875-4.313-.062-.949-.124-1.9-.188-2.875.093-1.547.093-1.547.188-3.125,3-2,3-2,6-2,.049-1,.1-2.008.148-3.043.659-12.489,2.034-24.225,5.95-36.18a36.436,36.436,0,0,0,2.027-12.214c0-.927.005-1.854.008-2.809a15.546,15.546,0,0,0-.746-5.43C-141,90-141,90-139.313,87.25c2.255-2.193,3.253-2.922,6.313-3.25-.083-.928-.165-1.856-.25-2.812C-133,78-133,78-131.375,76.25a14.887,14.887,0,0,1,5.312-1.937c3.912-1.676,4.9-3.694,6.887-7.34A21.952,21.952,0,0,1-115,62q1.64-1.831,3.25-3.687L-109.9,56.2q1.895-2.188,3.773-4.391l1.816-2.117,1.637-1.926A31.779,31.779,0,0,1-97,43h2l.758-1.812A14.182,14.182,0,0,1-89.125,36a48.737,48.737,0,0,0,6.5-5.375L-81,29h2l.813-3.875C-77.428,21.5-77.3,21.2-74,19a55.445,55.445,0,0,1,7,1v2l3.5-1.812C-53.106,15-53.106,15-48,15V13l1.833-.427q4.147-.97,8.292-1.948l2.883-.672A99.058,99.058,0,0,0-23.93,6.891C-18.967,5.382-13.8,5.281-8.637,4.965l2.5-.207,2.265-.152L-2,4ZM-13,12l1,3,3-1V12Zm30,0,2,3h2V12Zm9,2,1,2a43.48,43.48,0,0,0,6.563,1.125l3.629.508L40,18V16C33.088,14.271,33.088,14.271,26,14Zm-57,2v2q3.221-.421,6.438-.875l3.621-.492L-18,16l1-2C-21.867,13.686-26.309,14.856-31,16Zm75,1v2l14,5V22q-2.935-1.256-5.875-2.5l-3.3-1.406C46.193,16.879,46.193,16.879,44,17Zm-87.125,2.5-3.32,1.406L-49,22l1,2,6-2V20l7-1V17C-38.025,17-40.356,18.322-43.125,19.5ZM-12,19q.175,2.72.375,5.438l.211,3.059a32.219,32.219,0,0,0,1.32,7.316c1.733,7.465,2.363,15.145,3.219,22.75q.275,2.4.551,4.791Q-5.655,68.176-5,74H2q.223-8.008.33-16.016.045-2.724.123-5.447c.073-2.612.107-5.221.133-7.834l.094-2.456A20.906,20.906,0,0,0,2,36a17.391,17.391,0,0,0-6-4c-1.932-2.824-2.327-5.373-2.625-8.75l-.227-2.422L-7,19Zm11,0-1,4H2V19Zm8,0v4h3V19Zm9,0-.3,2.266c-1.229,8.091-1.229,8.091-3.641,11.359A14.15,14.15,0,0,1,7,35V74h7l.183-1.664q.941-8.541,1.9-17.08.356-3.191.707-6.382.5-4.576,1.02-9.152l.316-2.9.3-2.669.262-2.362C19,30,19,30,20,29c.233-1.682.413-3.371.563-5.062l.254-2.785L21,19Zm-39.062,2-3.348.563L-29,22q.9,4.471,1.813,8.938l.5,2.518a112.366,112.366,0,0,0,3.969,14.368A109.021,109.021,0,0,1-20,58.438c1.427,6.271,3.015,12.441,5,18.563l6-2c-1.022-12-2.162-23.973-3.5-35.937l-.359-3.316A76.775,76.775,0,0,0-16,20,43.5,43.5,0,0,0-23.062,21ZM25,21a20.577,20.577,0,0,0-2.686,8.4l-.3,2.61-.3,2.8-.328,2.9q-.34,3.033-.67,6.067-.5,4.63-1.033,9.256-.329,2.951-.656,5.9l-.312,2.785A98,98,0,0,0,18,75l5,2,.551-1.871c1.221-4.115,2.461-8.205,3.887-12.254C29.02,58.185,30.2,53.4,31.37,48.6c1.6-6.546,3.318-13.058,5.055-19.569A28.22,28.22,0,0,0,38,22Zm-82.687,4.5L-59,27a29.481,29.481,0,0,0,5-1l1-2C-56,23.668-56,23.668-57.687,25.5Zm15.438.438-2.7,1.152L-47,28c3.281,8.859,6.768,17.562,10.711,26.148C-32.46,62.619-29.088,71.235-26,80l7-2c-2.93-11.443-5.892-22.859-9.3-34.169C-30.161,37.612-31.643,31.346-33,25-36.69,23.629-38.709,24.4-42.25,25.938ZM42,24l-.77,3.4c-3.118,13.616-3.118,13.616-4.73,18.1a129.291,129.291,0,0,0-4.011,15.248A141.844,141.844,0,0,1,28,76v2l7,1c2.678-6.325,5.3-12.671,7.813-19.062l1.27-3.223C45.16,54,45.16,54,45,51h2l1.207-3.254,1.605-4.309L50.6,41.3c1.677-4.493,3.474-8.909,5.4-13.3q-2.37-1.013-4.75-2l-2.672-1.125C45.822,23.786,45.822,23.786,42,24Zm19,0c1.353,2.706,2.81,2.962,5.563,4.125l2.5,1.07L71,30l1-2q-1.9-1.011-3.812-2l-2.145-1.125C63.911,23.8,63.911,23.8,61,24ZM-60,27l-3,2,2,1,2-1Zm2,6c-1.9,3.357-1.9,3.357-2,7a77.882,77.882,0,0,0,6,11c.643,1.22,1.272,2.447,1.875,3.688L-51,57h2l.625,2.375C-46.507,64.3-43.762,68.532-41,73c2.121,3.605,4.189,7.227,6,11a17.909,17.909,0,0,0,4-2c1.26-3.781.546-4.62-1.062-8.187-2.174-4.971-4.139-9.969-6-15.062A136.2,136.2,0,0,0-45,43q-.808-2.083-1.562-4.187A34.916,34.916,0,0,0-51,30C-54.106,30-55.563,31.111-58,33ZM59,30q-3.36,8.037-6.68,16.09l-.872,2.125q-.89,2.171-1.779,4.343c-1.425,3.469-2.87,6.927-4.38,10.36C41.271,71.694,41.271,71.694,39,81c1.211,2.05,1.211,2.05,3,3a30.307,30.307,0,0,0,5.875-7.687c1.829-3.117,3.676-6.207,5.625-9.25,2.481-3.943,4.687-8.011,6.863-12.129a62.566,62.566,0,0,1,3.68-6.023c3.664-5.276,3.664-5.276,4.977-11.375A12.214,12.214,0,0,0,66,32C62.451,30.389,62.451,30.389,59,30ZM-78,39v5h12V39ZM74,39v5H87l-1-5Zm20,4,2,4,2-1ZM-86,43q-1.943,1.65-3.875,3.313l-2.18,1.863C-94.192,50.041-94.192,50.041-96,53a29.812,29.812,0,0,0,7.75-5.125l1.859-1.633L-85,45ZM98,47c1.133,3.4,2.125,4.053,5,6l2-1C101.827,48.754,101.827,48.754,98,47Zm-7,2-1.687,2.25A21.189,21.189,0,0,1,84.5,55.938C81.582,58.345,80.043,60.815,78,64q-1.565,2.074-3.172,4.117l-1.88,2.4L71,73q-2.773,3.545-5.543,7.092-1.865,2.388-3.734,4.773l-1.809,2.318-1.626,2.08A12.63,12.63,0,0,0,56,93l6,4a74.435,74.435,0,0,0,7-7.562A41.117,41.117,0,0,1,76,83a74.522,74.522,0,0,0,7-7.5,64.893,64.893,0,0,1,10-9.937A57.574,57.574,0,0,0,101,57,38.645,38.645,0,0,0,91,49ZM-83,49q-2.561,1.921-5,4v2l-4,2A104.483,104.483,0,0,0-78,71.438,62.532,62.532,0,0,1-70,80q2.469,2.531,5,5l2.438,2.5c2.743,2.676,5.6,5.067,8.563,7.5l2,2,4-4-1-3h-2l-.746-2.176a32.672,32.672,0,0,0-5.316-8.012C-60.92,75.16-60.92,75.16-62,73h-2l-.812-1.687A73.509,73.509,0,0,0-69,64h-2l-.75-2.25A17.245,17.245,0,0,0-77,55h-2l-.875-1.875C-80.937,50.867-80.937,50.867-83,49ZM69,50l-.848,1.547c-3,5.441-6.1,10.815-9.242,16.176q-3.169,5.436-6.285,10.9l-1.048,1.831C50.342,82.619,49.114,84.772,48,87l4,1v2h2c1.379-1.7,2.68-3.46,3.938-5.25l2.09-2.953L62,79l1.754-2.234C65.192,75.088,65.192,75.088,65,73l3-1c4.345-4.76,7.69-10.494,11-16l-3.312-1.312A16.307,16.307,0,0,1,69,50ZM-67,55c-1.311.709-2.638,1.395-4,2l1.625,1.5a81.445,81.445,0,0,1,6.539,8.027c2.242,3.02,4.537,6,6.836,8.973q5.558,7.208,11,14.5l5-3a80.964,80.964,0,0,0-5.125-10.812l-1.633-2.957L-48,71h-2l-.625-2.375a63.688,63.688,0,0,0-5.937-11.258C-57.827,55.284-58.947,53.2-60,51-63.11,51-64.635,53.085-67,55Zm-34,1c-1.386,1.641-2.734,3.313-4.063,5l-2.222,2.813L-109,66l2,1q1.764-1.894,3.5-3.812l1.969-2.145C-99.7,59.025-99.7,59.025-100,56Zm667,0v1h16l-1-2A99.651,99.651,0,0,0,566,56Zm20,0v1l15,1c-3.527-2.351-5.029-2.214-9.187-2.125l-3.293.055ZM108,57q1.911,3.057,4,6h2l2,4,2-1a31.23,31.23,0,0,0-3-4h-2l-.812-1.937C111.113,57.669,111.113,57.669,108,57Zm445.375,0-3.6.563L547,58l1,2,14-2V56A55.36,55.36,0,0,0,553.375,57ZM606,58c3.445,2.3,5.938,2.54,10,3C612.994,57.994,610.176,58.4,606,58ZM-96,61q-2.009,2.179-4,4.375l-2.25,2.461C-104.21,69.8-104.21,69.8-104,72l2.437.813L-99,74l1,3a32.143,32.143,0,0,0,4.688,3.438l2.738,1.859q2.965,1.962,5.949,3.891A46.768,46.768,0,0,1-78,92l2.5,1.5a13.77,13.77,0,0,1,4.25,3.313c3.369,3.275,7.3,5.659,11.25,8.188l3-4c-1.567-3.846-4.056-6.124-7-9l-2.5-3.062A47.007,47.007,0,0,0-74,82q-2.531-2.468-5-5l-2.5-2.437A47.734,47.734,0,0,1-86.375,69,44.394,44.394,0,0,0-96,61Zm196.5,2.625A64.645,64.645,0,0,0,94,71a97.693,97.693,0,0,1-10,9,93.048,93.048,0,0,0-7.5,8A59.578,59.578,0,0,1,65,99l.938,1.875L68,105a38.029,38.029,0,0,0,8.75-5.75c3.7-3,7.435-5.917,11.258-8.758C91.714,87.716,95.351,84.85,99,82l4.75-3.687Q108.4,74.693,113,71q-1.354-1.983-2.75-3.937L108.7,64.848C105.857,61.76,104.027,61.332,100.5,63.625ZM528,64c3.937,1.312,6.125.243,10-1C534.185,61.533,531.71,62.567,528,64Zm97,0c.893,2.358.893,2.358,4.063,3.125L632,68V66ZM521,66l1,2,1-2Zm-3,2a26.3,26.3,0,0,0-4.625,1.938L510.9,71.09,509,72c2.853,1.3,2.853,1.3,5.043.223l2.145-1.16,2.167-1.152L520,69Zm115,0v2l5,2V70Zm-54,1v94a30.449,30.449,0,0,0,9,2.633l2.229.254,2.33.238,2.4.257A139.731,139.731,0,0,0,614,167l1,2c9.447-7.931,19.274-16.555,26-27v-2h2c6.714-11.851,11.622-21.015,9-35-2.427-6.515-6.652-12.985-13-16-.309-.639-.619-1.279-.937-1.937C636.614,84.25,634.785,83.393,632,82h-2V80q-2.9-1.26-5.812-2.5l-3.27-1.406C618.051,74.825,618.051,74.825,615,75V73q-4.494-1.032-9-2l-2.484-.578C594.949,68.6,588.292,69,579,69Zm-692,1q-1.475,2.152-2.938,4.313l-1.652,2.426A12.421,12.421,0,0,0-120,82h2a41.394,41.394,0,0,0,7-11Zm672.5-.379-2.494.4-2.564.42-2.577.408c-3.667.59-7.266,1.211-10.861,2.154v2l-3.375.25C527.561,76.554,518.72,82.134,510,87v2l-2,.563c-8.7,4.168-14.555,11.881-18.375,20.563-1.353,6.224-.96,10.428,2.375,15.875,3.1,5.414,3.1,5.414,8.066,8.48L502,135q1.041,1.98,2,4a15.192,15.192,0,0,0,3.938,2.438l2.433,1.273q5.432,2.662,10.957,5.1c1.627.723,3.245,1.467,4.844,2.25,5.909,2.843,12.037,4.429,18.375,6.007A71.98,71.98,0,0,1,553,159q2.453.63,4.938,1.125l2.464.508c3.151.507,3.151.507,8.6.367V69A56.452,56.452,0,0,0,559.5,69.621ZM119,71q1.4,2.194,2.813,4.375l1.582,2.461c1.589,2.4,1.589,2.4,4.605,4.164V79h-2c-.289-.763-.577-1.526-.875-2.312A17.1,17.1,0,0,0,122,71Zm-226,4c-1.225,1.427-2.4,2.893-3.563,4.375l-1.941,2.461c-1.686,2-1.686,2-1.5,4.164l2.816,1.609,7.438,4.25,1.872,1.07Q-100,94-98.12,95.077q4.635,2.654,9.308,5.236c4.69,2.594,9.305,5.309,13.918,8.039,2.917,1.661,5.879,3.174,8.895,4.648l3-5c-4.6-3.981-9.446-7.521-14.414-11.035a27.959,27.959,0,0,1-4.5-3.906,65.288,65.288,0,0,0-8.836-6.934q-1.874-1.319-3.746-2.641l-1.82-1.283c-2.2-1.567-4.35-3.19-6.5-4.826C-105.471,74.9-105.471,74.9-107,75Zm750,0,2,3,2-1ZM109,79l-2.844,1.977-3.031,2.148-2.93,2.07L98,87v2l-2.125.688A28.561,28.561,0,0,0,88.559,94.7a44.161,44.161,0,0,1-4.934,3.488L81,100v2l-2.25.813A27,27,0,0,0,72,107l2,6a39.209,39.209,0,0,0,11.508-5.43c3.235-2.038,6.545-3.929,9.867-5.82l1.877-1.071C99.482,99.411,101.7,98.148,104,97V95l2.625-.812A70.02,70.02,0,0,0,116,90V88l7-2a49.474,49.474,0,0,0-7-11C113.622,75,110.924,77.661,109,79Zm394-3-1,2,3-1Zm-6,4,1,2,4-4C499.676,77.815,499.676,77.815,497,80Zm150-2,2,3,2-1ZM-4,79l.439,2.992c.576,4.035,1.062,8.08,1.533,12.129l.265,2.257q.414,3.53.825,7.06l.564,4.818Q.315,114.127,1,120H2V79ZM7,79v40H8l.351-3.241q.647-5.961,1.3-11.92.282-2.578.562-5.156.4-3.709.812-7.417l.25-2.324A66.655,66.655,0,0,1,13,79Zm-19,1c-1.187,4.2-.736,6.665.688,10.75,1.8,5.475,3.27,10.945,4.563,16.563l.53,2.3Q-5.6,112.306-5,115h1A151.413,151.413,0,0,0-5.5,92.438L-5.934,88.8Q-6.46,84.4-7,80Zm28,0q-.86,6.912-1.709,13.825-.289,2.35-.582,4.7-.421,3.384-.834,6.769L12.61,107.4A71.144,71.144,0,0,0,12,118a31.975,31.975,0,0,0,3.184-8.668l.623-2.709.631-2.81a113.445,113.445,0,0,1,5.192-17.834C22.115,83.384,21.357,82.2,20,80Zm-40,5,.73,1.622c2.933,6.552,5.708,13.164,8.446,19.8l1.019,2.445.907,2.191A18.867,18.867,0,0,0-10,116c-.563-7.54-2.365-14.344-4.562-21.562l-1-3.346Q-16.77,87.043-18,83C-21.185,82.723-21.185,82.723-24,85Zm51-2-.586,2.012-.789,2.676-.773,2.637A44.083,44.083,0,0,1,23,95.422a68.052,68.052,0,0,0-2.691,9.141l-.824,3.378A11.905,11.905,0,0,0,20,115l1.137-2.859,1.551-3.891L23.5,106.2c2.12-5.308,4.337-10.569,6.615-15.811C31.173,87.956,31.173,87.956,31,85l2-1Zm467,0-1,2,3-1ZM207,87l7-1V85C210.045,84.652,210.045,84.652,207,87ZM-32,88c1.5,3.065,3.125,6.026,4.82,8.984l1.621,2.832,1.684,2.934,1.707,2.98Q-20.085,109.366-18,113c1.193-3.578.75-4.259-.687-7.625l-1.129-2.676c-1.422-3.243-2.847-6.485-4.3-9.715C-25.142,90.68-26.09,88.352-27,86-29.324,85.815-29.324,85.815-32,88Zm68-2c-6.148,12.739-6.148,12.739-11,26l1,2,1.734-3.043q2.186-3.827,4.406-7.633l1.055-1.818q1.073-1.851,2.156-3.7c2-3.2,2-3.2,2.648-6.811h2V87Zm165,3-6,4c3.576,0,5.053-1.088,8-3Zm25,0,5,5V91Zm259.875,2L484,93l1,2,5-6C487.756,88.771,487.756,88.771,485.875,91ZM658,90l2,6,1-3ZM46,91v2H44q-1.257,2.434-2.5,4.875l-1.406,2.742C38.861,102.866,38.861,102.866,39,105H37q-1.046,1.931-2.062,3.875l-1.16,2.18L33,113l1,2c5.774-6.744,11.3-13.438,16-21Zm163,0v2l-2.234-.176c-3.257.207-4.477,1-7.016,2.988l-2.078,1.582C195.742,99,195.742,99,195,102l-2.125,1.188C188.093,106.2,183.8,110.588,182,116q-2.487,1.522-5,3a39.547,39.547,0,0,0-4.25,4.5l-2.078,2.344c-1.851,2.141-1.851,2.141-2.672,5.156q-2.487,1.521-5,3-2.559,2.44-5,5l-2,2a28.76,28.76,0,0,0-.125,5.625c.027,1.5.027,1.5.055,3.039.023.771.046,1.542.07,2.336l2.875.563L162,154q1.114,3.465,2,7a14.985,14.985,0,0,0,4,2c2.6,3.615,1.984,6.678,1.375,10.938l-.477,3.652A16.7,16.7,0,0,1,164,186a16.834,16.834,0,0,1-6.625,1.563l-2.477.253L153,188c-.17.643-.34,1.286-.516,1.949-2.814,10.5-5.631,20.785-10.336,30.614C141,223.008,139.98,225.481,139,228l3,1c-.1,1.093-.206,2.186-.312,3.313.1,1.216.206,2.433.312,3.687a15.387,15.387,0,0,0,5,3l2,3a68.389,68.389,0,0,0,14.25-2.812c8.99-2.506,18.138-3.657,27.378-4.881l3.579-.475,3.234-.415A8.04,8.04,0,0,0,202,232l11-1V91Zm-323,1-2,13c7,3.3,14.032,6.178,21.291,8.832a92.814,92.814,0,0,1,11.826,5.289A72.541,72.541,0,0,0-71,123l2-5c-8.432-5.772-8.432-5.772-18-9v-2q-2.434-1.257-4.875-2.5l-2.742-1.406c-2.249-1.233-2.249-1.233-4.383-1.094v-2l-5.25-2.875-2.953-1.617C-109.447,94.3-111.72,93.14-114,92Zm76-1-3,2a29.044,29.044,0,0,0,6.25,10.25A132.225,132.225,0,0,1-24,118l2-1C-29.058,103.385-29.058,103.385-38,91Zm157.438,2.75a54.707,54.707,0,0,1-7.063,4.063c-5.639,2.744-10.979,6-16.375,9.188q-3.155,1.847-6.312,3.688l-2.973,1.734Q81.872,115.238,77,118l3,6,1-2q3.174-.666,6.352-1.312a59.7,59.7,0,0,0,10.7-4.333c3.109-1.427,6.251-2.652,9.453-3.855,5.965-2.25,11.724-4.8,17.5-7.5l-2-13C121.62,91.906,121.62,91.906,119.438,93.75ZM223,93V230c8.527-1.344,8.527-1.344,15-5.062l2.188-1.6L242,222l2-1c.295-.913.59-1.825.9-2.766a21.783,21.783,0,0,1,4.793-7.984C257.15,202.4,257.15,202.4,261,193l34-1c-2.524-4.207-3.656-5.551-7.246-8.332-3.2-3.047-5.538-6.8-8.02-10.438L278,171h-2l-2-4h-2c-.082-.722-.165-1.444-.25-2.187-.914-3.428-2.456-5.126-4.75-7.813l-2.062-3.312L263,151h-3c-.062-1.011-.124-2.021-.187-3.062-.534-3.928-2.209-6.314-4.657-9.36C254,137,254,137,253,134h-3c-.1-.706-.209-1.413-.316-2.141a32.735,32.735,0,0,0-3.621-8.609c-.525-.964-1.05-1.928-1.59-2.922-1.262-2.438-1.262-2.438-3.473-3.328-.7-1.669-1.4-3.338-2.078-5.016-1.755-3.778-4.136-8.091-7.922-9.984-.289-.763-.577-1.526-.875-2.312A15.8,15.8,0,0,0,225,93Zm260,2,1,2Zm-616,1v3h12V96Zm263,0v3h12V96Zm531,0,1,2ZM-46,97l-2,4a127.911,127.911,0,0,0,10,11l2.438,2.5c1.86,1.815,3.691,3.478,5.688,5.125A64.177,64.177,0,0,1-24,125a24.181,24.181,0,0,0-5.367-9.055c-2.21-2.633-4.263-5.38-6.32-8.132l-2.324-3.106Q-40.073,101.9-42,99h-2V97Zm99,0c-4.885,5.888-9.694,11.824-14.375,17.875l-1.261,1.62A83.337,83.337,0,0,0,31,126c5.01-2.041,8.1-5.921,11.5-10a59.269,59.269,0,0,1,10.188-10c2.538-2.195,3.343-3.828,4.313-7Zm429,0-2,4h2l1-4ZM237,99l1,2Zm426,0,1,3Zm-425,2,1,4,1-2Zm-291,3-3,4a299.108,299.108,0,0,0,27,21l1-2-2.687-2.187A109.907,109.907,0,0,1-39,117l-2.562-2.5A37.191,37.191,0,0,1-46,109.375,20.934,20.934,0,0,0-53,104Zm114,0-2.187,2.188c-2.805,2.8-5.766,5.274-8.812,7.812a122.577,122.577,0,0,0-10,11c-.983,1.017-1.973,2.027-3,3a37.164,37.164,0,0,0,8-4v-2l2.25-.812A23.245,23.245,0,0,0,54,117v-2l2.188-.687C59.532,112.752,61.516,110.7,64,108l-2-4Zm122,1-1,2h2Zm57,0,1,3v-3Zm238,0c-2.441,5.644-2.193,10.978-2,17h1l2-17Zm186,2v17h1a45.368,45.368,0,0,0,1.063-11.312c-.014-1.6-.014-1.6-.028-3.239-.011-.808-.023-1.616-.035-2.449Zm-787,3.063-2.125.6c-2.953,2.111-3.116,4.923-3.875,8.34l3.219.77,4.281,1.043,2.109.5a79.827,79.827,0,0,1,10.364,3.2A77.979,77.979,0,0,0-96.062,128a103.873,103.873,0,0,1,14.438,3.813c3.567,1.168,4.3,1.264,7.625.187l1-5-1.8-.7c-4.666-1.836-9.234-3.771-13.762-5.926A56.91,56.91,0,0,0-103,116v-2q-3.435-1.255-6.875-2.5l-1.973-.723C-116.228,109.2-118.586,108.708-123,110.063Zm242.063,1.125-3.524,1.386q-6.3,2.537-12.551,5.168-3.091,1.3-6.195,2.578C91.768,122.39,86.807,124.463,82,127l1,6c6.1-.479,11.458-2.015,17.277-3.887,4.918-1.47,9.888-2.613,14.9-3.718A65.657,65.657,0,0,0,126,122q3.144-.859,6.313-1.625l3.238-.789L138,119c-.389-3.451-.389-3.451-2-7C130.119,108.317,125.334,108.717,119.063,111.188ZM179,109l1,2Zm64,0v2l2-1Zm-377,2-1,7c2.36-2.36,2.491-3.779,3-7Zm75,0-2,5q7.063,4.482,14.25,8.75l3.016,1.8A21.4,21.4,0,0,0-37,129v-2c-3.633-2.962-3.633-2.962-8-4l-1-3c-3.63-2.972-3.63-2.972-8-4l-1-3A17.893,17.893,0,0,0-59,111Zm200,0,1,7h2l-1-7Zm-74,0c-6.276,4.8-12.545,9.608-18.75,14.5l-2.422,1.906C43.9,128.883,43.9,128.883,43,131c3.065-1.508,6.067-3.109,9.063-4.75l2.9-1.586L58,123l6.188-3.375L66.98,118.1,69,117v-4Zm-84,2,1,2Zm13,2,1,4Zm36,0,1,2Zm-9,1,1,2Zm223,0,2,2v-2Zm-74,1-4,4,1,2,4-4ZM22,118l1,2Zm-87,2-2,6,1.984.7c6.22,2.223,12.319,4.64,18.387,7.25A40.133,40.133,0,0,0-40,136v-2q-2.434-1.257-4.875-2.5l-2.742-1.406c-2.249-1.233-2.249-1.233-4.383-1.094v-2q-2.687-1.47-5.375-2.937L-60.4,122.41C-61.921,121.585-63.451,120.774-65,120Zm81,0,1,2Zm53.563,2.125Q58.945,128.842,48,135c2.151,1.363,2.151,1.363,5.258,0q1.938-.709,3.867-1.441l2-.737q2.443-.9,4.879-1.826v-2l1.863-.367,2.449-.508,2.426-.492c2.515-.578,2.515-.578,5.262-2.633l-2-5C72.264,120,71,121.208,69.563,122.125ZM250,120l1,2ZM-8,121l1,2Zm-129,1-1,9,2-1q.61-3.483,1-7Zm388,0,1,4,1-2Zm-107,1,1,4,1-4Zm22,0-1,2,3-1Zm739,2,14-1v-1q-2.656-.081-5.312-.125l-2.989-.07C907.776,122.793,907.776,122.793,905,125Zm19-2c3.795,2.214,7.756,3.01,12,4l1-2A34.039,34.039,0,0,0,924,123Zm-1054,1q-.762,2.121-1.5,4.25c-.278.789-.557,1.578-.844,2.391-.835,2.593-.835,2.593-.656,6.359,9.659,1.995,19.392,3.018,29.187,4.063q3.618.39,7.235.784,2.232.243,4.465.481C-87.4,142.834-82.7,143.4-78,144l2-6-2.09-.551c-4.395-1.175-8.75-2.354-13.035-3.886a147.725,147.725,0,0,0-15.635-4.076,115.4,115.4,0,0,1-13.3-3.893A47.965,47.965,0,0,0-130,124Zm248.75,4.438a131.8,131.8,0,0,1-15.724,4.116A62.039,62.039,0,0,0,92,136q-3.491,1.03-7,2l2,6,2.77-.332q2.022-.24,4.043-.48l2.217-.264q7.482-.88,14.97-1.69l3.657-.4q3.625-.395,7.25-.782l3.394-.369,3.036-.327c3.959-.531,6.176-1.011,9.476-3.357,2.431-3.334,2.441-3.922,2-7.812-.245-1.4-.507-2.8-.813-4.188C132.21,124,125.123,126.163,118.75,128.438ZM253,126l1,2Zm638,1c3.815,1.467,6.29.433,10-1C897.063,124.688,894.875,125.757,891,127Zm19.25,1.438a27.934,27.934,0,0,1-8.687,2.062A39.609,39.609,0,0,0,888,134l-1,2c-1.6.205-3.206.4-4.812.582-4.269.816-8.215,2.7-12.188,4.418v2l-3.437.313A46.119,46.119,0,0,0,853,147l-1,2a50.067,50.067,0,0,1-5.687,1.5A109.574,109.574,0,0,0,834,154v3l-2.812-.187A39.655,39.655,0,0,0,816,160l-1,3-1.871.113a54.081,54.081,0,0,0-15.031,3.2A49.681,49.681,0,0,1,789,168q-2.522.945-5,2a116.51,116.51,0,0,1-18.768,3.855c-4.575.568-4.575.568-8.232,3.145a52.9,52.9,0,0,1-6.125.5,58.618,58.618,0,0,0-12.769,2.032A62.7,62.7,0,0,1,727,180.625l-2.348.117q-2.824.14-5.652.258l-1,2-3.25-.625c-3.51-.552-3.51-.552-5.937.125-2.2,1.489-2.2,1.489-2.422,4.977q-.1,2.073-.141,4.148c-.03.706-.059,1.413-.09,2.141-.071,1.744-.118,3.489-.16,5.234l1.993.12c11.284.711,22.494,1.451,33.57,3.818l2.245.477a87.06,87.06,0,0,1,12.391,3.914,44.735,44.735,0,0,0,6.8,1.859l2.313.48L767,210v2q2.685,1.257,5.375,2.5l3.023,1.406c2.439,1.223,2.439,1.223,4.6,1.094l1,3a9.559,9.559,0,0,0,5,2,14.072,14.072,0,0,0,5-2.062,167.73,167.73,0,0,1,16-6.8c1.78-.676,3.549-1.383,5.289-2.157,6.354-2.779,11.3-2.3,17.637.137q3.07,1.314,6.125,2.668A57.965,57.965,0,0,0,848,217v2q3.153,1.259,6.313,2.5l3.55,1.406c3.055,1.259,3.055,1.259,6.137,1.094v2l2.6,1.066a217.756,217.756,0,0,1,21.336,10.254q4.34,2.383,8.747,4.618l2.386,1.214c1.88.982,1.88.982,3.926.848l1,3c2.3,1.705,3.889,1.992,6.75,2.188,5.059-1.849,8.3-5.741,11.25-10.188v-4l1.8-.27c4.07-1.352,6.1-5.156,8.2-8.73a15.829,15.829,0,0,0,1-6h4c2.2-3.8,2.2-3.8,3-8h2c.289-.742.578-1.485.875-2.25a91.1,91.1,0,0,1,4.414-9.117c3.458-6.427,3.458-6.427,3.711-13.633h2c2.121-5.568,3.248-10.045,3-16l1-1c.125-1.621.176-3.249.188-4.875.014-.884.028-1.769.042-2.68-.059-2.7-.059-2.7-2.23-5.445-.217-1.64-.217-1.64-.437-3.312A26.263,26.263,0,0,0,951,144h-3c-.206-.887-.412-1.774-.625-2.687-1.808-4.357-3.46-5.7-7.375-8.313-2.754-.421-2.754-.421-5,0l-1-3a23.259,23.259,0,0,0-5.562-1.687l-3.067-.762L923,127v2l-1.687-1C917.189,126.217,914.292,126.8,910.25,128.438ZM-37,129l1,2,2-1Zm198,0-6,5,1,2,6-5Zm500,0-1,5,2-2Zm281,0v2l2-1ZM-69,130l-1,4a97.844,97.844,0,0,0,18.813,6.25l2.209.53A38.411,38.411,0,0,0-38,142c-2.612-2.612-5.067-3.191-8.562-4.375A123.9,123.9,0,0,1-59,132.75,29.851,29.851,0,0,0-69,130Zm137.313,2L65.3,133.125,63,134v2l-1.723.332A61.767,61.767,0,0,0,47,141v1a122.763,122.763,0,0,0,31-7l-1-5C73.625,130,71.46,130.815,68.313,132ZM480,130l2,5,1-2Zm-619,1-1,5h2v-5Zm1014.313,1.438-2.45.871L871,134l1,2,11-4C879.521,130.84,878.658,131.225,875.313,132.438ZM944,131l5,5v-3Zm-688,1,2,2v-2Zm2,2,1,2Zm401,0q-1.6,2.947-3,6l1,2a28.28,28.28,0,0,0,3-5Zm-176,1,1,2Zm-224,1,1,2Zm1,2,1,2Zm597.313,1.438-2.45.871L853,141l1,2,11-4C861.521,137.84,860.658,138.225,857.313,139.438ZM-72,139l-1,6c7.46,1.239,14.924,2.275,22.438,3.125l2.292.265A92.25,92.25,0,0,0-36,149a31.98,31.98,0,0,0-8.668-3.184l-2.709-.623-2.811-.63a152.481,152.481,0,0,1-18.029-5A6.324,6.324,0,0,0-72,139Zm-68,1c-1.382,2.765-1.1,5.046-1.063,8.125.01,1.1.019,2.191.028,3.32.011.843.023,1.686.035,2.555h2V140Zm213.688.688C64.259,143.65,54.627,145.788,45,148v1c12.446-.562,24.679-2.205,37-4l-1-6C78.322,139,76.239,139.85,73.688,140.688ZM954,140l2,4-1-4Zm-1088,1-1,13h57v-6c-10.795-1.982-21.651-3.145-32.555-4.325q-3.508-.383-7.015-.773l-2.175-.23c-5.029-.559-5.029-.559-7.255-1.672Q-130.5,140.94-134,141Zm397,1,1,2Zm-160.375,3.438-3.559.408A58.786,58.786,0,0,0,87,148v6c3.521.088,7.041.141,10.563.188l3,.076c5.967.059,10.151-.44,15.436-3.264v-2l2.813-.812A12.731,12.731,0,0,0,125,144,153.87,153.87,0,0,0,102.625,145.438ZM492,144l1,3a12.815,12.815,0,0,0,4,1q-1.968-2.031-4-4Zm464,0,2,7a9.443,9.443,0,0,0,1-4A10.251,10.251,0,0,0,956,144Zm-117.25,2.438-2.141.871L835,148c3.479,1.16,4.342.775,7.688-.437l2.449-.872L847,146C843.7,144.876,841.949,145.1,838.75,146.438ZM142,146l-1,2h2Zm510,0v3l2-3Zm-503,1c-1.356,1.125-1.356,1.125-1.062,4.063.02.969.041,1.938.062,2.937h2v-7Zm-10,1,1,2,1-2Zm128,0,1,3Zm-340,1-1,5h38v-1Zm723,0,1,2Zm-577.191.875-2.484.269L62.438,151l-5.334.578L44,153v1H82v-5A86.176,86.176,0,0,0,72.809,149.875ZM137,150l1,2,1-2Zm362,0,3,3,1-2Zm-7,1c-.33,24.75-.66,49.5-1,75,21.833-4.107,21.833-4.107,43-10l3.277-1.027A167.337,167.337,0,0,0,569,201V179c-5.919-1.117-5.919-1.117-11,0v-2q-3.621-1.05-7.25-2.062l-2.066-.6c-4.868-1.365-4.868-1.365-9.684-.334v-2l-2.047-.586-2.7-.789-2.672-.773a21.786,21.786,0,0,1-4.7-1.946c-2.644-1.278-4.984-1.037-7.875-.906v-2l-8-2v-2l-1.906-.664a48.563,48.563,0,0,1-14.6-8.164C493.186,150.9,493.186,150.9,492,151Zm157,0-1,2h2Zm310,0,1,2Zm-132,0-12,4c3.552,1.184,4.7.7,8.188-.437l2.73-.872L828,153ZM3,154l-1,5,3,1,2-1-1-5Zm268,0,1,2Zm237,0v2l2-1Zm137,1,1,2Zm-373,1,1,2Zm239,1c3.2,2.834,5.781,3.521,10,4-2.255-2.255-4.005-2.977-7-4Zm450,0v13h1V157Zm-688,1,1,3,2-1Zm527.25,1.438c-.985.287-1.97.574-2.984.871L795,161c3.659,1.315,6.08.655,9.75-.437l2.984-.872L810,159C806.341,157.685,803.92,158.345,800.25,159.438ZM-135,160l1,13,6.437-.375,3.622-.211a58.194,58.194,0,0,0,8.023-1.355c6.308-1.482,12.73-1.988,19.168-2.621q3.727-.375,7.453-.754l3.3-.327c2.708-.323,5.331-.779,8-1.357v-6Zm61,0,1,5q3.5.063,7,0l1-1c1.995-.3,4-.539,6-.754l3.682-.4,3.877-.408,3.889-.42Q-42.775,161.5-38,161v-1Zm121,0v1c4.331.566,8.665,1.1,13,1.625l3.7.484c6.679.8,11.912,1.111,18.3-1.109v-2Zm75,0-2,2,5-1Zm7,3-3.562,1.438c-3.49,1.217-3.49,1.217-4.875,3.75-.186.6-.372,1.2-.563,1.812,7.552,2.312,15.165,2.612,23,3V160l-5.312-.187-2.989-.106C131.549,160.049,131.009,160.681,129,163Zm510-1,1,2Zm-113,1,1,2a41.629,41.629,0,0,0,6.063,1.625l3.347.789L539,168v-2Zm-562,1,4,1Zm825-1-13,3v1q2.376-.213,4.75-.437l2.672-.247A44.023,44.023,0,0,0,790,165Zm-846.875,3.313-3.414.357-3.266.381-2.953.333A8.4,8.4,0,0,0-73,171l2,4a144.393,144.393,0,0,0,17.5-4.5A144.207,144.207,0,0,1-36,166v-1A156.162,156.162,0,0,0-57.875,166.313ZM45,165c5.855,2.928,10.623,3.4,17,2v-1Zm64.375.5-2.477.844L105,167v1c5.391-.23,5.391-.23,10-2.562L116,164A19.166,19.166,0,0,0,109.375,165.5ZM278,165l2,2v-2Zm358,0-2,3,4-2Zm-355,3,1,2Zm483,1c2.862,1.431,4.934.6,8,0v-2C769.116,167,766.705,168.059,764,169Zm-5,1-1,2,5-1Zm-843.016.427-2.51.284-2.724.312-2.812.322-5.911.681q-4.48.516-8.961,1.021l-5.754.664-2.674.3c-5.952.7-11.78,1.73-17.638,2.989a94.728,94.728,0,0,0,3,13,185.01,185.01,0,0,0,24.254-5.891c5.8-1.717,11.689-3.033,17.588-4.359l2.63-.6,2.352-.525A29.993,29.993,0,0,0-77,176l-1-6A52.447,52.447,0,0,0-84.016,170.427ZM-48,172.875l-2.117.527A82.315,82.315,0,0,0-61,177q-2.393.616-4.812,1.125l-2.395.508L-70,179l2,6a164.117,164.117,0,0,0,20.438-8.187A75.968,75.968,0,0,1-35,172v-1C-39.545,170.734-43.638,171.74-48,172.875ZM551,171c2.354,1.429,3.48,2.087,6.25,1.625L559,172C556.291,170.646,553.991,170.935,551,171Zm-706,1,1,4h12v-4Zm244.313,0-2.449.563L85,173v2q2.721-.422,5.438-.875l3.059-.492L96,173l1-2A31.7,31.7,0,0,0,89.313,172ZM151,172v4h12v-4Zm601-1q-3.22.422-6.437.875l-3.622.492L739,173l-1,2,15-2Zm-650,5a21.062,21.062,0,0,1-4.687.688l-2.449.2L93,177v2l1.893.411q4.306.942,8.607,1.9l2.977.646a94.152,94.152,0,0,1,14.611,4.361,61.124,61.124,0,0,0,10.412,2.368l2.2.392q2.647.47,5.3.92l.4-1.828.536-2.422.527-2.391q.725-3.192,1.535-6.359l-1.934-.184-2.5-.253-2.5-.247C133,176,133,176,132,175,115.937,171.421,115.937,171.421,102,176Zm461-3c2.815,2.277,2.815,2.277,6,2v-2Zm-277,1v2l2-1Zm438,1-1,2,11-1v-2A63,63,0,0,0,724,175Zm236,0,1,2Zm-377,2v1a63.436,63.436,0,0,0,14,1v-1A63.436,63.436,0,0,0,583,177Zm136,0,4,1Zm240,0-2,11,2-1a24.68,24.68,0,0,0,.625-5.062c.075-.92.15-1.839.227-2.786.049-.71.1-1.42.148-2.152ZM-42.258,178q-1.938.709-3.867,1.442l-2,.736q-2.443.9-4.879,1.826v2l-1.793.367A58.025,58.025,0,0,0-67,188l2,5c9.88-3.765,18.921-9.645,28-15C-39.151,176.637-39.151,176.637-42.258,178ZM63,178l2,2a22.1,22.1,0,0,0,5-1v-1Zm650-1-6,1v1h7Zm-33,4a66.208,66.208,0,0,0,15-1v-1q-2.906-.081-5.812-.125l-3.27-.07C682.806,178.77,682.806,178.77,680,181ZM51,180v1h6v-1Zm240,0,2,2v-2Zm337,0v1l8,1,1-2Zm13,0v2h15v-2Zm19,0v2l15-1v-1Zm-745.043,3.078c-3.778,1.178-7.6,2.047-11.457,2.922a129.764,129.764,0,0,0-15.1,4.207c-5.71,1.885-11.583,3.283-17.4,4.793l4,13a213.493,213.493,0,0,0,24.437-9.5c4.562-2.1,9.177-3.853,13.911-5.523A134.571,134.571,0,0,0-73,187l-2-6C-78.886,181-81.432,181.808-85.043,183.078ZM74,181l-2,2,5,2,1-4Zm9,0-1,6c4.812,2.29,4.812,2.29,10,3v2l3.4,1.172A220.545,220.545,0,0,1,118,202q2.9,1.35,5.813,2.688l2.707,1.261A34.317,34.317,0,0,0,133,208v-2h2l3-11-2.824-.734c-6.211-1.633-12.375-3.3-18.488-5.266a187.141,187.141,0,0,0-18.51-4.6,51.877,51.877,0,0,1-8.96-2.512C86.779,180.754,86.779,180.754,83,181Zm496,1v13c3.543-1.4,3.543-1.4,7-3v-2l2.188-.812A53.753,53.753,0,0,0,596,185c-3.17-2.794-5.437-3.457-9.625-3.75l-2.914-.234C580.994,180.814,580.994,180.814,579,182Zm-434,0-1,10,2-1a16.461,16.461,0,0,0,.625-4.062c.124-1.3.247-2.6.375-3.938Zm-283,1,1,9h2c-.124-1.3-.247-2.6-.375-3.937-.07-.731-.139-1.462-.211-2.215-.137-.61-.273-1.22-.414-1.848Zm432,0,2,4,2-1Zm-331,1a17.755,17.755,0,0,0-3.875,2l-2.406,1.4L-46,189l-3.156,1.824c-6,3.464-6,3.464-11.844,7.176l2,4c4.064-1.231,6.687-3.33,9.82-6.137C-44.655,192-39.785,188.536-35,185Zm5.375,2.375-1.914,1.336L-35,189v2l-2.312.875A17.1,17.1,0,0,0-43,195v2l-2.25.813A23.22,23.22,0,0,0-52,202v2l-4,2,4,4a45.812,45.812,0,0,0,9-9,97.785,97.785,0,0,1,10-9,45.712,45.712,0,0,0,7-8C-28.591,184-29.531,184.884-31.625,186.375ZM59,185c2.589,2.05,5.293,3.892,8.063,5.688l2.035,1.324c1.989,1.218,1.989,1.218,4.9.988l2-5q-2.835-1.053-5.687-2.062l-3.2-1.161A13.05,13.05,0,0,0,59,185Zm560.594,1.23c-2.04,1.868-2.04,1.868-1.594,5.77l-2.562.125c-4.051,1.031-5.929,2.7-8.922,5.5A10.414,10.414,0,0,1,603,200l-1,3a28.857,28.857,0,0,1-4.875,2.063A34.579,34.579,0,0,0,589,209v2l-4,1v2l-2.437-.062c-2.5-.234-2.5-.234-3.563,1.062-.1,1.417-.122,2.838-.12,4.258,0,.919,0,1.837,0,2.784,0,1.015.007,2.031.01,3.077v3.222q0,5.3.016,10.6,0,3.665.005,7.328,0,9.663.024,19.328.016,9.854.02,19.706.016,19.348.049,38.7,3.156.041,6.313.063l3.55.035c3.168.051,3.168.051,6.137-1.1,1.666-.039,3.334-.045,5,0q.113-9.366.165-18.732.023-3.182.061-6.363c.037-3.061.054-6.121.067-9.182.015-.938.031-1.876.047-2.842a39.421,39.421,0,0,0-2.637-15c-3.355-8.965-1.484-18.749,1.922-27.378,4.868-10.167,12.846-17.636,22.438-23.312L624,219v-2l1.688-.516L628,215.75l2.25-.7a62.164,62.164,0,0,0,6.535-2.965C656.494,202.059,678.339,200.546,700,199l-1-14c-10.165-.107-20.283,0-30.437.5-14.586.7-29.06,1.018-43.594-.574C621.99,184.786,621.99,184.786,619.594,186.23ZM47,187l2.156,1.711q2.806,2.259,5.563,4.578l2.781,2.336,2.781,2.352A25.647,25.647,0,0,0,68,202l2-4-4-1v-2q-2.434-1.257-4.875-2.5l-2.742-1.406C56.134,189.861,56.134,189.861,54,190v-2Zm251,0,3,3-1-3ZM41,188c1.373,4.494,3.278,6.23,7,9a79.246,79.246,0,0,1,7.563,8.188c2.159,2.49,3.411,3.691,6.438,4.812l2-5q-4.494-3.507-9-7l-1.686-1.313Q50.66,194.621,48,192.563L46.255,191.2C43.881,188.979,43.881,188.979,41,188Zm-66,1,1,2Zm-8.5,8.375c-1.73,1.817-3.394,3.7-5,5.625a104.337,104.337,0,0,1-7.5,8l-1.812,1.813L-49,214l5,3v-2l3-1c2.972-3.63,2.972-3.63,4-8h2c1.4-1.7,2.724-3.458,4-5.25l2.125-2.953A47.152,47.152,0,0,0-25,191C-27.99,191-31.465,195.442-33.5,197.375ZM34,191l.938,1.875L37,197h2l.793,2.223a29.77,29.77,0,0,0,4.52,7.215l1.867,2.335C48.435,211.532,50.7,214.28,53,217l4-2c-1.565-3.841-4.06-6.13-7-9l-2-2.562A41.086,41.086,0,0,0,41,197l-5-5Zm46,0a39.644,39.644,0,0,0-3,5l1.914,1.031c4.315,2.338,8.618,4.687,12.863,7.149l1.906,1.1q1.863,1.083,3.72,2.176c3.093,1.928,3.093,1.928,6.6,2.541v2l2.6,1.391,3.465,1.859,1.8.961c3.142,1.681,6.193,3.435,9.2,5.352,2.741,1.694,2.741,1.694,5.187,1.062A17.918,17.918,0,0,0,131,215a5.74,5.74,0,0,0-1-4c-6.039-3.9-13-5.737-20-7v-2l-3.078-1.137c-7.631-2.832-15.193-5.743-22.664-8.98C82.094,190.879,82.094,190.879,80,191Zm528-1-8,5,1,2,8-5Zm-703,9.93c-3.606,1.649-7.224,3.168-10.953,4.515l-2.143.778q-2.113.76-4.236,1.495A30.035,30.035,0,0,0-123,213c.565,1.486,1.152,2.964,1.75,4.438.325.823.65,1.647.984,2.5,1.064,2.2,1.064,2.2,3.124,2.8,3.739.466,6.662-1.933,9.767-3.795l2.175-1.266q3.112-1.816,6.2-3.672l2.781-1.656q2.329-1.4,4.649-2.809c4.378-2.615,8.83-5.1,13.273-7.605,3.195-1.87,6.24-3.846,9.3-5.93l-2-5C-78.874,191-87.927,196.637-95,199.93ZM1,193v9H2v-9Zm954,0-1,4,3-3ZM17,194l1,2Zm-21,1,1,4Zm-11,1,1,2Zm-120,1q.422,2.472.875,4.938c.162.916.325,1.833.492,2.777L-133,207l2,1q-.422-2.472-.875-4.937c-.162-.917-.325-1.834-.492-2.778L-133,198Zm277,0q-1.007,2.685-2,5.375c-.371,1-.742,1.995-1.125,3.023-.981,2.46-.981,2.46-.875,4.6h2q1.01-2.4,2-4.812l1.125-2.708c1.041-2.513,1.041-2.513.875-5.48Zm-153,1-1.172,2.93-.759,1.9q-.824,2.061-1.646,4.121-1.806,4.521-3.642,9.03A110.372,110.372,0,0,0-23,230l5,1,.586-2.23.789-2.957.773-2.918A37.95,37.95,0,0,1-14,217.547a65.827,65.827,0,0,0,2.691-9.109l.824-3.379A11.905,11.905,0,0,0-11,198Zm-6,1-1.5,2.641Q-25.185,213.359-32,225a25.422,25.422,0,0,0,3,3h2l.953-2.562c3.922-10.4,3.922-10.4,6.234-14.75A43.429,43.429,0,0,0-16,199Zm12,0-.411,1.785q-.944,4.077-1.9,8.153l-.646,2.806a129.071,129.071,0,0,1-4.479,15.286c-.745,2.27-.745,2.27-.562,5.97l6,1q.763-6.218,1.5-12.437l.434-3.53A131.378,131.378,0,0,0-4,199Zm957,0,1,2Zm-357,0-3,3,4-1ZM20,201a69.391,69.391,0,0,0,3.438,19.563l.659,2.128c.974,3,1.645,5.05,3.9,7.309a14.106,14.106,0,0,0,4-1c-2.486-7.163-4.976-14.265-8.152-21.156C22.814,205.6,21.893,203.308,21,201Zm6,0a42.83,42.83,0,0,0,3.313,11.813l1.344,3.128L32,219l1.219,2.777Q34.6,224.894,36,228l5-2-1-3H38l-.781-2.617a51.833,51.833,0,0,0-4.719-9.508c-1.95-3.248-3.864-6.456-5.5-9.875Zm48,0-.375,1.938L73,205l-2,1,1.652,1.285,2.285,1.778L77.43,211q2.447,1.9,4.891,3.813l2.242,1.75,2,1.566c2.745,2.111,5.514,4.188,8.286,6.263q3.165,2.37,6.323,4.749l2.068,1.554,4.195,3.157c.677.507,1.353,1.015,2.049,1.539l1.83,1.376c1.529,1.121,3.1,2.181,4.682,3.233l7-11a27.056,27.056,0,0,0-10-5v-2c-11.056-7.207-11.056-7.207-23-11v-2q-2.434-1.257-4.875-2.5l-2.742-1.406C80.134,203.861,80.134,203.861,78,204v-2Zm877,0,1,3ZM-67,201c-2.395,1.271-4.686,2.6-7,4q-1.911,1.083-3.832,2.148c-6.581,3.68-13.131,7.384-19.574,11.3-5.478,3.275-11.044,6.4-16.594,9.551a33.266,33.266,0,0,0,4.625,8.813c.784,1.051,1.567,2.1,2.375,3.187l1.469-1.1,4.23-3.171q2.256-1.693,4.508-3.391l2.105-1.586,1.926-1.453c1.555-1.145,3.155-2.226,4.762-3.3v-2l2.25-.812A23.245,23.245,0,0,0-79,219v-2l2.137-.742a43.143,43.143,0,0,0,8.676-5.383l2.957-2.2L-63,207C-64.118,203.274-64.118,203.274-67,201Zm67,1-.26,2.276q-.587,5.144-1.178,10.287l-.408,3.58C-2.492,223.774-3.152,229.4-4,235H2c.28-16.535.28-16.535-1-33Zm590,0,1,2,1-2ZM13,204l1,12,2-1q-.17-2.471-.375-4.937l-.211-2.778L15,205Zm575,0a36.084,36.084,0,0,0-5,3l2,1a36.084,36.084,0,0,0,5-3Zm362,0-1,2h2Zm-1081,4v2l2-1Zm70,1v2l-2.109.707a42.139,42.139,0,0,0-9.141,5.981l-1.731,1.356q-1.721,1.35-3.437,2.706c-2.1,1.659-4.216,3.3-6.332,4.938q-3.282,2.555-6.555,5.121c-4.49,3.514-9.028,6.914-13.7,10.191,2.485,4.785,4.479,7.861,9,11,5.5-4.732,10.845-9.414,15.5-15a65.463,65.463,0,0,1,10.063-10A41.124,41.124,0,0,0-63,221l5-5,2-3h-2l-2-4Zm129,0c-2.4,2.637-2.4,2.637-3,6a66.6,66.6,0,0,0,7.5,7c4.789,3.831,8.587,8.3,12.5,13a68.752,68.752,0,0,0,7.563,7A40.579,40.579,0,0,1,99,249a29.907,29.907,0,0,0,4,4h2c1.436-1.615,2.8-3.292,4.125-5l2.195-2.812L113,243a68.485,68.485,0,0,0-9.625-8.25l-2.914-2.141c-2.25-1.791-2.25-1.791-4.461-1.609l-1-3a19.868,19.868,0,0,0-3.605-2.742l-2.232-1.543-2.35-1.59c-8.654-5.917-8.654-5.917-12.238-9.008C72.3,210.788,72.3,210.788,70,211v-2Zm618,2-1,2,8-1v-1Zm21,0v1h5v-1Zm10,0,4,2v-2Zm229,0-2,5,3-3Zm-268,1,1,2,1-2Zm48,0,2,2,3-1Zm9,1v2l10,2v-2Zm-864,1q.9,3.528,2,7l2,1a25.265,25.265,0,0,0-2-8Zm91,0,1,2Zm174,0-2,7h-2l-2,6h2l6-12Zm430,1,1,2,3-3C567.925,213.851,567.925,213.851,566,215Zm99.313-1.125-2.387.492L661,215l-1,2q2.94-.423,5.875-.875l3.3-.492c2.939-.4,2.939-.4,4.82-2.633A38.163,38.163,0,0,0,665.313,213.875ZM959,214c-3.908,5.855-3.409,11.73-3.356,18.583,0,1.266-.005,2.531-.007,3.835q-.008,5.188.026,10.375.022,5.432.015,10.864,0,9.114.041,18.228.043,11.706.043,23.412.006,10.064.031,20.126.006,3.237.01,6.473.008,6.02.036,12.039c0,1.2,0,2.4,0,3.633.006,1.088.012,2.176.018,3.3,0,.949.005,1.9.009,2.875-.016,2.3-.016,2.3,1.131,4.26h2v-4h2V214Zm-252,1v55l7-6c.928-.722,1.856-1.444,2.813-2.187,2.353-1.951,4.02-3.552,4.434-6.686,0-.7,0-1.4,0-2.124.005-1.2.005-1.2.009-2.416-.007-.856-.014-1.713-.022-2.6s0-1.762,0-2.67q0-2.792-.023-5.583-.027-4.29-.02-8.579-.007-2.709-.018-5.418c0-.86,0-1.721,0-2.607.35-3.88.35-3.88-1.165-7.135q-2.5-.062-5,0v2c-.588-.742-.588-.742-1.187-1.5C711.75,214.469,711.75,214.469,707,215Zm-746,1,1,2Zm86,0a20.067,20.067,0,0,0,1,4l2,1-2-5Zm648,1-2-1c-4.145-.248-4.145-.248-8,1q-.174,17.133-.259,34.266-.039,7.954-.118,15.91-.081,7.674-.1,15.347-.015,2.931-.055,5.863c-.036,2.732-.041,5.463-.039,8.2-.018.812-.036,1.624-.054,2.461.032,3.471.078,5.417,2.6,7.922C690.9,308.43,690.9,308.43,699,309V215C697.538,214.908,697.538,214.908,695,217Zm248-1-1,4,2-1ZM-61.625,225.5a39.12,39.12,0,0,0-4.375,5c-3.831,4.789-8.3,8.587-13,12.5a95.951,95.951,0,0,0-9,10c-1.315,1.351-2.643,2.691-4,4q1.9,1.727,3.813,3.438l2.145,1.933C-84,264.191-84,264.191-81,265q1.949-2.334,3.875-4.687l2.18-2.637c2.037-2.562,2.037-2.562,3.016-5.446L-71,250l3-1c2.972-3.63,2.972-3.63,4-8l3-1a22.811,22.811,0,0,0,2.75-4A163.336,163.336,0,0,1-48,222q-1.968-2.031-4-4C-54.93,218-59.562,223.535-61.625,225.5ZM-40,218v0Zm100,0-4,4,1.25,1.363a167.056,167.056,0,0,1,11.855,15.024C71,240.994,72.98,243.493,75,246q3.11,4.041,6.2,8.1c2.844,3.714,5.783,7.327,8.8,10.9,4.785-2.485,7.861-4.48,11-9l-2.187-1.687A62.355,62.355,0,0,1,89,244.438,41.086,41.086,0,0,0,82,238a68.635,68.635,0,0,1-7-7.562A41.086,41.086,0,0,0,68,224l-2.625-2.687C63.146,218.807,63.146,218.807,60,218Zm593,0,1,2,1-2Zm73,0v36l2-1v-2l2.688-.812A32.71,32.71,0,0,0,739,246v-2l6-2,1-21c-7.7-1.74-7.7-1.74-15-2Zm-172.25,2.438-2.141.871L550,222c3.479,1.16,4.342.775,7.688-.437l2.449-.872L562,220C558.7,218.876,556.949,219.1,553.75,220.438ZM664,219.875l-2.187.492c-2.032.562-2.032.562-3.813,2.633h-3l-2,1v72c8.824,4.248,8.824,4.248,14,4l1,2a31.389,31.389,0,0,0,11,2V219C671.252,218.818,671.252,218.818,664,219.875ZM753,219c2.349,2.349,3.957,2.731,7.125,3.625l2.758.789L765,224c-1.283-2.565-2.228-2.665-4.875-3.625l-2.117-.789C755.869,218.86,755.869,218.86,753,219Zm-501.5,3.813-2.344,1.582A37.777,37.777,0,0,0,244,229c3.07.289,4.57.29,7.168-1.461l2.02-1.914,2.042-1.9q1.9-1.851,3.77-3.727C255.438,220,254.394,220.83,251.5,222.813Zm13.188.625-2.114,1.933c-1.69,1.371-1.69,1.371-1.574,2.629a14.438,14.438,0,0,0,6,0,35.05,35.05,0,0,0,7-8C269.6,219.577,267.88,220.449,264.688,223.438ZM277,227l-2,2a45.489,45.489,0,0,0,10,0c2.182-2.439,3-3.732,3-7l3-1v-1C283.4,219.083,281.3,220.942,277,227Zm18.438-2.5c-.845,1.482-1.668,2.978-2.438,4.5,2.287,1.144,3.593,1.1,6.125,1.063L303,230l5-10C301.682,219.138,299.06,218.949,295.438,224.5ZM392,220l2,3a16.75,16.75,0,0,0,5,0l-2-3A16.75,16.75,0,0,0,392,220Zm15,0q1.935,2.064,4,4h2l1,3h5q-2.493-2.009-5-4l-2.125-1.75C409.96,219.723,409.96,219.723,407,220Zm534,0-1,2h2ZM16,221l2,2v-2Zm630-1a22.43,22.43,0,0,0-4,2l2,1a22.43,22.43,0,0,0,4-2Zm-332,2a40.269,40.269,0,0,0-3,6l1,3a40.269,40.269,0,0,0,3-6Zm-438,1,1,2Zm692-2v2l-2.75.25A66.972,66.972,0,0,0,549,228l-1,2c-2.836.776-5.628,1.452-8.5,2.063-5.161.7-5.161.7-9.5,2.937l-3.25.438A33.933,33.933,0,0,0,518,238a156.423,156.423,0,0,1-21,4v7l-5,1v10l4.188.25c4.343.472,6.705,1.545,9.812,4.75,1.442,2.884,1.094,5.417,1.063,8.625-.01,1.189-.019,2.377-.028,3.6-.011.915-.023,1.83-.035,2.773l-1.852.9a24.091,24.091,0,0,0-4.523,2.661A21.4,21.4,0,0,1,492,286v4h62v12h-4v8l10,1,1,13h8V221Zm247,2,1,3Zm-860,1c-6.522,8.428-6.522,8.428-12.937,16.938-2.787,3.74-5.675,7.4-8.562,11.062-7.473,7.952-7.473,7.952-11.5,17l6,3c5.467-7.471,10.25-15.259,14.945-23.224,1.979-3.332,4.021-6.625,6.059-9.921,1.154-1.8,1.154-1.8,1-3.855h2l5-10Zm796,0v14l5.375-2.25,3.023-1.266c2.784-1.588,3.55-2.517,4.6-5.484q-1.837-.981-3.687-1.937l-2.075-1.09C755.619,224.741,755.619,224.741,751,224Zm75,0q.82,8.035,1.654,16.071.282,2.733.562,5.467.4,3.929.811,7.857c.083.815.165,1.631.25,2.471A41.466,41.466,0,0,0,831,265c.144,1.334.246,2.672.316,4.012.042.757.084,1.514.127,2.3s.079,1.571.12,2.381.086,1.594.13,2.416q.159,2.947.307,5.9h13a105.681,105.681,0,0,0-10-41c-.331-.715-.663-1.43-1-2.167Q830.54,231.4,827,224Zm-949,1,1,2Zm142,0,1,3v-3Zm33,0a112.468,112.468,0,0,0,9.766,17.09A14.493,14.493,0,0,1,64,247h2l.625,2.438c2.834,7.343,7.8,15.274,15,18.875,2.443.826,2.443.826,5.375.687v-2H85l-.746-2.176a32.661,32.661,0,0,0-5.316-8.011C75.08,252.159,75.08,252.159,74,250H72l-.812-1.687A68.582,68.582,0,0,0,62.563,235.5c-2.286-2.755-4.557-5.493-6.723-8.344L54,225Zm584,0q-3.047,1.4-6,3l1,2,7-4Zm-275,1,1,2a16.462,16.462,0,0,0,4.063.625L370,229C366.812,226.875,364.735,226.5,361,226Zm181-1-13,4c4.256,1.064,5.675.775,9.75-.437l2.984-.872L544,227Zm102,2v2l-2.187-.187c-3.415.227-5.02,1.254-7.813,3.187l-2.124,1.3c-2.073,1.549-2.073,1.549-2.357,3.962.013,1.322.013,1.322.027,2.671,0,1,0,2,0,3.033.02,1.078.041,2.157.062,3.267.006,1.106.012,2.212.018,3.351.022,3.536.072,7.071.123,10.607q.03,3.593.055,7.185.066,8.814.2,17.627h4v3q2.934,1.508,5.875,3l3.3,1.688c2.6,1.453,2.6,1.453,4.82,1.312V226C645.925,225.851,645.925,225.851,644,227Zm170-1q-1.7,3.309-3.375,6.625l-.961,1.871a43.192,43.192,0,0,0-4.976,20.629A47.721,47.721,0,0,1,799,277l-2,5h13c.055-.964.111-1.928.168-2.922q.309-5.348.632-10.7.137-2.317.27-4.636.191-3.326.4-6.649c.038-.695.077-1.39.117-2.106.3-4.878.3-4.878,1.418-5.992a108.822,108.822,0,0,0,2-23Zm122,0-1,4,3-3Zm-583,2c2,7.005,2,7.005,6,13l2-1-2-5h-2l-.875-2.937C355.358,228.893,355.358,228.893,353,228Zm597,1q-1.52,2.487-3,5l-1.579,1.871c-1.7,2.545-1.792,3.9-1.782,6.938,0,.965-.008,1.929-.012,2.923.011,1.052.021,2.1.032,3.187,0,1.112,0,2.225,0,3.371,0,3.68.026,7.359.049,11.038q.009,3.825.013,7.651.015,9.041.064,18.083.051,10.294.065,20.59Q943.9,330.826,944,352h7V229ZM7,230v5l3-1Zm836,0a74.578,74.578,0,0,0,5,8.75l1.563,2.422L851,243h2l.688,2.5a31.377,31.377,0,0,0,3.687,7.188,54.3,54.3,0,0,1,5.73,12.7q.891,2.6,1.938,5.144a45.132,45.132,0,0,1,2.082,7.282c.168.79.335,1.58.508,2.394L868,282l6-2v-2l6-2q-1.218-2.939-2.437-5.875l-1.372-3.3c-.686-1.626-1.4-3.241-2.191-4.82h-2c-.238-.706-.477-1.413-.723-2.141a36.592,36.592,0,0,0-5.714-8.609l-2.372-2.922c-2.047-2.543-2.047-2.543-5.191-3.328-.7-1.315-1.365-2.651-2-4a12.768,12.768,0,0,0-3-3h-2c-.206-.577-.412-1.155-.625-1.75C848.5,233.186,846.03,231.845,843,230Zm-878,1q-5.666,9.315-11.022,18.8c-2.519,4.433-5.143,8.79-7.849,13.111A20.042,20.042,0,0,0-56,269h-2l-4,9c2.743,2.743,3.744,3.5,7.188,4.688l2.168.761L-51,284l1-4h2q1.259-3.4,2.5-6.812l.723-1.948A22.363,22.363,0,0,0-43,263h2l1.137-3.078q.775-2.086,1.551-4.172l.815-2.19c2.052-5.471,4.268-10.853,6.615-16.205,1.058-2.4,1.058-2.4.883-5.355Zm74,1c.617,3.013,1.293,6.007,2,9l.625,2.75c2.185,3.576,5.659,5.431,9.375,7.25h2v2l3,1c-1.358-5.161-3.85-9.257-6.66-13.73A18.292,18.292,0,0,1,47,235H45l-1-4C41.075,230.776,41.075,230.776,39,232Zm-159,0q1.1,2.2,2.25,4.375l1.266,2.461c1.514,2.583,1.514,2.583,5.484,4.164l-5-9h-2v-2Zm247,0a29.3,29.3,0,0,0-6,10l-2,1c2.648-.367,3.73-.669,5.449-2.777.409-.713.817-1.426,1.239-2.16l1.261-2.153q1.065-1.934,2.051-3.91Zm396-1-13,3v1q2.376-.213,4.75-.437l2.672-.247A44.023,44.023,0,0,0,524,233Zm273,1,1,2Zm-431,1c2.322,7.332,2.322,7.332,7.5,12.738A87.427,87.427,0,0,0,381,249q2.346.9,4.688,1.813L389,252a32.516,32.516,0,0,0-5.875-10.187l-2.055-2.606c-3.907-4.165-7.517-4.5-13.07-5.207Zm20,0,1,2,2-1Zm546,0v0Zm-957,1-.734,2.09c-1.885,5.285-3.884,10.453-6.211,15.558-1.622,3.617-3.11,7.287-4.613,10.954-1.078,2.541-2.191,5.044-3.352,7.546L-41.9,272.3q-.962,2.1-1.957,4.179c-1.777,3.9-2.562,6.394-1.147,10.519q2.15.8,4.313,1.563l2.426.878c2.4.808,2.4.808,5.262-.441a11.483,11.483,0,0,0,1.246-3.945l.592-2.491.6-2.689q.653-2.764,1.309-5.527l.644-2.765C-25.859,259.935-22.424,248.464-19,237-21.36,234.64-22.779,234.509-26,234Zm59,0,1,3,1-3Zm360,1,3,2,2-1Zm227,0v3l2-3Zm-123,1v1h7l1-2A46.289,46.289,0,0,0,497,236Zm-512,2c-2.845,9.287-5.4,18.479-7.32,28a53.1,53.1,0,0,1-2.918,8.777c-1.8,5.243-2.687,10.79-3.762,16.219,6.283,2.645,6.283,2.645,13,3a84.535,84.535,0,0,0,3.289-17.168l.328-2.9q.339-3.018.67-6.038.507-4.623,1.033-9.243.329-2.94.656-5.88l.312-2.788.284-2.6.251-2.278c.17-2.028.176-4.068.176-6.1Zm10,1-.427,3.7q-.793,6.849-1.6,13.7-.345,2.954-.687,5.906-.493,4.269-1,8.535l-.3,2.627c-.616,5.174-1.476,10.227-2.6,15.316-.508,2.5-.508,2.5-.392,6.221l14,1V240Zm418,0v1h6v-1Zm64,0v1h7v-1Zm394,0q2.434,2.563,5,5h2l1,3a28.722,28.722,0,0,0,3.625,3.188,83.144,83.144,0,0,1,9.93,10.113A31.614,31.614,0,0,0,896,264v-3l5-1a38.183,38.183,0,0,0-11-10q-2.508-1.738-5-3.5l-2.6-1.816q-2.143-1.5-4.273-3.024C875.483,239.806,874.319,239,871,239ZM7,240v56l6-1V239A30.981,30.981,0,0,0,7,240Zm23,0,2,3,2-1Zm214,1v1h9l1-2A38.327,38.327,0,0,0,244,241Zm20-1-1,2h10l-1-2Zm127,0a69.628,69.628,0,0,0,6,10l1.758,2.5c4.27,5.752,7.236,8.744,14.242,10.5.891,4.632,1.122,6.881-1,11,.032,1.969.066,3.938.125,5.906-.206,3.454-1.61,6-3.125,9.094a18.577,18.577,0,0,0-1,7.5,18.577,18.577,0,0,1-1,7.5c-.08,1.408-.108,2.82-.1,4.23,0,.8.007,1.6.01,2.432s.017,1.667.026,2.526.009,1.689.013,2.56q.018,3.126.049,6.252l-2,1h21l1-12,37-1v-8l-3.289-.113-4.336-.2-2.16-.069A22.729,22.729,0,0,1,442,298l-2-3h-2c.046-1.169.093-2.338.141-3.543q.056-2.322.109-4.644c.034-.769.067-1.538.1-2.331.065-3.82,0-5.911-2.055-9.22L434,273l-2.187-2.25L429,268q-2.127-2.123-4.25-4.25l-2.344-2.344c-7.156-7.156-7.156-7.156-9.394-9.4q-1.8-1.8-3.617-3.578A38.265,38.265,0,0,1,404,242a30.962,30.962,0,0,0-6.625-1.187l-3.6-.481Zm41,0,1,2h9c-1.761-2.183-1.761-2.183-3.945-2.2Zm24,0c3.249,2.166,3.6,2.213,7.188,1.625L467,241v-1Zm15,0v1h6v-1Zm145,0-2,3,3-1Zm5.59,1.391-1.652,1.859-1.661,1.828c-1.646,2.093-1.646,2.093-1.277,5.922h-2c-2.29,4.812-2.29,4.812-3,10h2l-1,6h2c.083.557.165,1.114.25,1.688.977,3.012,2.724,4.906,4.75,7.312l1,2h2l1,2V240C622.789,239.883,622.789,239.883,621.59,241.391ZM768,239l-7,4v2l-2.75.75c-3.458,1.33-5.089,2.258-7.25,5.25a18.059,18.059,0,0,0,0,6,74.455,74.455,0,0,0,7.313-6.312c3.41-3.411,7.033-6.542,10.687-9.688Zm-546,4c6.313.376,6.313.376,12-2C227.687,240.624,227.687,240.624,222,243Zm61-2v1l10,1v-2Zm503,0,2,2v-2Zm138,0v3l2-3Zm-620,1,1,2h2v-2Zm-101,1v3l5-2v-1Zm410,0,1,2Zm175,0,1,2ZM35,244l1,3v-3Zm887,0,1,2Zm-140,1a19.354,19.354,0,0,0-7,8c-.934,6.6-.431,13.373,0,20h1c.351-1.2.7-2.392,1.063-3.625a78.822,78.822,0,0,1,6.775-14.5c1.9-3.452,1.9-3.452,1.486-7.23C784.081,245.867,784.081,245.867,782,245Zm-891,1c1.473,5.009,4.275,7.518,8,11l2-1q-2.214-2.5-4.438-5l-2.5-2.812L-108,246Zm226,0-3,3,1,2,3-3Zm70.25,0-2.984.563L182,247v1q3.189-.171,6.375-.375l3.586-.211c3.145-.116,3.145-.116,5.039-2.414A49.211,49.211,0,0,0,187.25,246ZM233,250v2l-1.812.875A27.059,27.059,0,0,0,226,256a13.966,13.966,0,0,0-.5,4.375c-.283,3.733-.76,5.885-3.5,8.625l2,4,1.688-2.187a135.965,135.965,0,0,1,9.847-10.313l2.528-2.5,2.535-2.5A97.942,97.942,0,0,0,247,248l2-2C242.389,245.53,238.07,245.464,233,250Zm12.866,8.839c-3.735,4.325-7.936,8.208-12.069,12.148-3.2,3.129-5.557,5.572-6.8,10.013l1,1c.126,1.767.176,3.541.188,5.313.014.965.028,1.931.042,2.925C228,293,228,293,226,297h31l3-9c2.063-3,2.063-3,5-5a49.588,49.588,0,0,1,7.7-.664c2.85-.415,3.444-1.2,5.3-3.336,1.408-2.526,2.729-5.033,4-7.625.354-.715.709-1.43,1.074-2.166A91.681,91.681,0,0,0,289,254h2l2-7c-2.079-.3-4.164-.567-6.25-.812l-3.516-.458c-3.409-.061-3.409-.061-5.656,2.633-1.749,2.411-1.749,2.411-1.578,4.637h-2l-1.812,3.313a17.5,17.5,0,0,1-3.786,5.132c-1.838,2.039-1.857,3.409-2.027,6.118-.3,4.277-.3,4.277-1.375,6.437a22.484,22.484,0,0,1-4.375.75l-2.4.3C256,275,256,275,253,273c-.839-3.846-1.254-6.239,0-10a26.135,26.135,0,0,1,4.188-1.687c5.23-2.148,8.1-5.4,10.812-10.313v-2l3-1v-2C258.06,243.1,253.4,249.732,245.866,258.839ZM917.875,248,916,250l1,2,5-6C919.756,245.772,919.756,245.772,917.875,248ZM19,247c.59,11.39,1.65,22.675,3,34h1q.148-6.54.22-13.08.03-2.225.082-4.449c.049-2.132.071-4.264.089-6.4.021-1.283.042-2.566.063-3.888-.133-3.278-.133-3.278-2.479-5.128Zm203,0,2,3,3-3Zm712.969,1.977-2.469,2.648-2.469,2.6c-2.3,3.144-3.051,4.879-3.031,8.773a16.611,16.611,0,0,0,3.75,5.125l2.172,2.508L935,273l3,4V247C936.647,246.884,936.647,246.884,934.969,248.977ZM-134,248v3h13v-3Zm264,0,1,2,3-2Zm39.75.938L166,250a12.285,12.285,0,0,0,8.25.063L178,249A12.279,12.279,0,0,0,169.75,248.938ZM124,250l-2,4,3-1Zm177-2c-1.973,3.656-1.973,3.656-3.94,7.315q-2.576,4.8-5.2,9.572c-5.443,9.652-5.443,9.652-8.859,20.113a15.388,15.388,0,0,0,3,5c.388,2.325.727,4.659,1,7q3.625.041,7.25.063l2.066.025A36.431,36.431,0,0,0,306,296V273h9V250c-4.169.542-4.169.542-5.668,3.773-2.9,6.863-5,12.646-5.129,20.215L304,276l-2,1v2c-6.75-1.75-6.75-1.75-9-4a13.88,13.88,0,0,1,0-6l2.289-1.648c3.677-3.19,4.84-6.619,6.524-11.1.311-.793.622-1.586.943-2.4.761-1.944,1.5-3.9,2.244-5.848Zm308,2,1,4Zm-496,1q-2.537,2.97-5,6c2.622-1.049,3.794-1.649,5.25-4.125.247-.619.5-1.238.75-1.875Zm98-2-1,3-2.5.813c-4.746,1.61-8.417,4.332-12.5,7.187-6,4-6,4-9.312,5.625-2.872,2.045-2.872,2.045-3.11,4.676q-.141,2.643-.25,5.289C182,278,182,278,179.688,281c-5.438,4.046-5.438,4.046-10.063,3.875A21.815,21.815,0,0,1,160,280a21.948,21.948,0,0,1-1.125-8c0-1.3,0-1.3-.008-2.625A13.955,13.955,0,0,1,160,264a18.393,18.393,0,0,1,11-4q2.412.635,4.813,1.313c3.175.727,4.648.926,7.656-.407,2.268-1.542,4.4-3.186,6.531-4.906l3.063-1.75L195,253v-2c-10.472.89-20.9,1.939-31,5l-1,2a23.879,23.879,0,0,1-4.062.438A41.017,41.017,0,0,0,146,262v2l-1.609-.684c-3.53-.467-5.539.97-8.641,2.622l-3.266,1.714L130,269v3l-2.25.188c-3.648,1.077-4.805,2.6-6.75,5.812a6.775,6.775,0,0,0,1,4l1.938-.187a34.255,34.255,0,0,1,9.769,2.386c3.065,1.071,6.165,1.936,9.293,2.8v-2c3,1,3,1,4,3a44.8,44.8,0,0,0,6.75,1q2.06.242,4.117.488l2.1.249c2.986.387,5.942.928,8.907,1.451A43.832,43.832,0,0,0,184,291l1,3,14,1c1.181-3.95,1.181-3.95.875-7.937-.05-3.835.739-5.97,3.125-9.063l1.25-1.625c2.668-2.1,5.6-3.127,8.75-4.375l-1-5h-2c-2.236-4.341-2.031-7.275-1-12a23.548,23.548,0,0,1,2-4h2v-2Zm266.375,2.5-2.477.281L473,252c1.167,3.5,1.87,3.817,4.938,5.625l2.152,1.289q1.926,1.1,3.91,2.086V251A57.656,57.656,0,0,0,477.375,251.5ZM47,253l1,3a12.816,12.816,0,0,0,4,1q-1.968-2.031-4-4Zm101,2,1,2,10-3C154.45,252.862,152.369,253.572,148,255Zm268-10,1.938,1.875c5.546,5.547,10.674,11.514,15.812,17.438,5.041,6.611,5.041,6.611,12.25,9.687l2-1c5.713-.686,8.775.659,13.4,3.711A6.584,6.584,0,0,1,464,280h2l1,10h17c.034-2.9.056-5.8.012-8.7a39.09,39.09,0,0,1,.258-6.008A13.256,13.256,0,0,0,483,268a73.26,73.26,0,0,0-12.233-7.989,94.308,94.308,0,0,1-8.9-6.113c-1.867-1.115-1.867-1.115-4.109-.546L456,254l2,3c.4,3.843-.406,6.513-2,10-8.631,1.391-8.631,1.391-13.062.125-2.286-2.507-2.116-3.117-2.188-6.375-.166-3.194-.408-4.384-2.625-6.754-2.319-1.766-4.7-3.38-7.125-5l-2.437-2.437C424.575,244.131,420.553,244.682,416,245Zm192,9,1,2Zm-244,1,3,2,1-2ZM28,256v38l9-3a68.734,68.734,0,0,0-3.1-16.027c-1.159-3.836-2.125-7.709-3.086-11.6l-.542-2.194Q29.632,258.592,29,256Zm324,0c-1.418,1.189-1.418,1.189-1.1,4.6q.01,2.232.036,4.465c0,.758.009,1.517.013,2.3q.018,2.82.049,5.639h9v18l4.938-.437,2.777-.247c2.247-.076,2.247-.076,3.285-1.316,1.846-.395,3.7-.742,5.563-1.062l3.066-.536L382,287c.93-2.551,1.086-3.74.223-6.359l-1.16-2.391c-.381-.8-.761-1.6-1.153-2.422-.3-.6-.6-1.206-.91-1.828h-2l-.312-2.125A36.124,36.124,0,0,0,373,263h-5v2h2v2l3,2c.4,3.131.521,5.131-1.125,7.875-2.717,1.63-4.772,1.455-7.875,1.125l-2-2c.041-1.176.082-2.351.125-3.562A22.161,22.161,0,0,0,358,259C354.948,256.885,354.948,256.885,352,256Zm388.734,2.082c-2.929,3.126-5.729,6.327-8.484,9.606l-1.5,1.759C726.616,274.351,726,275.222,726,282h13c.247-1.155.495-2.31.75-3.5a30.051,30.051,0,0,1,3.375-8.375c2.485-4.62,2.253-9,1.875-14.125C742.733,255.774,742.733,255.774,740.734,258.082ZM607,259v2l2-1Zm-703,1-1,2,10,8,2-1q-2.465-2.254-4.937-4.5l-2.777-2.531C-94.624,259.891-94.624,259.891-96,260Zm152,0,4,3,2-1C59.185,259.723,59.185,259.723,56,260Zm-21,1,1,7h1v-6Zm68,0-9,8c3.779,0,4.461-1,7.188-3.5l2.167-1.969L105,262Zm277,0v2l5,1C382.737,261.921,382.737,261.921,380,261Zm388,1q-1.734,3.3-3.437,6.625l-.987,1.871A31.379,31.379,0,0,0,760,282h9V262Zm135,0v3l2-3ZM42,266v24c9.175-1.175,9.175-1.175,13-4-1.033-6.121-3.1-13.152-7.629-17.6C44.894,266.642,44.894,266.642,42,266Zm566,0,3,8c1.35-2.129,1.35-2.129.063-5.125-.351-.949-.7-1.9-1.063-2.875Zm-220,1,5,4,2-1C391.944,267.412,391.944,267.412,388,267Zm-3,4q.926,2.473,1.875,4.938l1.055,2.777c.852,2.434.852,2.434,3.07,3.285l3-1c.588-2.285.588-2.285,0-5C391.483,273.556,388.61,271,385,271Zm-467,2c2.363,2.526,3.665,3.888,7,5l-1-3A31.7,31.7,0,0,0-82,273Zm184,0v3h2v-3Zm294,0,1,2,2-1Zm515,0c-1.206.983-1.206.983-1.1,2.848.012.731.024,1.461.036,2.215.02,1.3.041,2.6.062,3.937h7c-.875-4.955-.875-4.955-4.125-8.437Zm-794,1v0Zm495,0,1,3v-3Zm162,1,1,2Zm164,3,1,2ZM65,280l-1,2,4-2Zm334,0-1,2h2Zm504,0,1,2Zm-286,1,1,2,2-1Zm263-1-2,2h3Zm-946,3,4,2-1-2Zm138,0a16.427,16.427,0,0,0-3.625,1.938L65,287l1,2,8-5Zm42,0v2l2-1Zm506,0,1,2,2-1Zm-682,2v2l9,3v-2Zm81,0v10l2-1-1-9Zm109,2-1,2q2.342.51,4.688,1l2.636.563A39.2,39.2,0,0,0,142,291c-3.146-2.1-5.015-2.52-8.687-3.125l-3.012-.508Zm579,0v19c4.188,1.047,5.322.855,9.25-.437L721,304V287Zm19,0v14c2,1.294,2,1.294,4.277.258l2.661-1.133c2.681-1.129,5.3-2.2,8.062-3.125v-2h5l-1-8Zm25,0v5l7-3v-2Zm47,0-1,22c8.875-.636,8.875-.636,16-4l-2-1V287Zm32,0v11c6.277-.392,11.819-1.167,17-5l1-3,1.563.688c3.725.477,6.082-1.075,9.437-2.688v-1Zm59.843,1.044c-2.213,2.348-2.411,3.993-2.409,7.175.025.684.051,1.369.078,2.074.007.706.014,1.412.021,2.139.028,2.253.091,4.5.155,6.756q.038,2.291.068,4.583.082,5.616.244,11.229h3v-3l13-1V287C894.186,286.424,894.186,286.424,889.843,288.044ZM910,287v31h12V287Zm17,0v31l11,1V287Zm-160,1-3,3,5-2Zm16.1,5.273A25.184,25.184,0,0,1,777,297v2h-2v13l4.063.063,2.285.035A92.516,92.516,0,0,0,791,311l-1-23C787.55,288,784.84,291.692,783.1,293.273ZM861,291a29.389,29.389,0,0,0,5-1l1-2C864.238,288,863.107,289.314,861,291Zm-254-2v34l7-1c1.812-.062,3.625-.087,5.438-.062l2.621.027L624,322c.174-3.416.281-6.831.375-10.25.05-.968.1-1.936.152-2.934A33.143,33.143,0,0,0,624,301c-2.66-2.643-2.66-2.643-6-4q-1.884-1.269-3.75-2.562l-1.734-1.192C611,292,611,292,609,289Zm-656,1v2l2-1Zm141,0,6,12h2c.247.887.5,1.774.75,2.688,1.258,3.85,1.258,3.85,5.25,8.312V296l2-1-2.738-.84-3.574-1.1-3.551-1.09Q95.058,291.018,92,290Zm-139,2c.876,2.3.876,2.3,3.75,3.125A23.7,23.7,0,0,0-35,296c-2.421-2.421-3.8-2.528-7.125-3.125l-2.758-.508Zm195,0,1,2a29.618,29.618,0,0,0,5.563.625l3.066.227L160,295c-3.035-2.023-4.194-2.321-7.687-2.625l-2.45-.227Zm229,0-1,2,3-1Zm481,0a22.43,22.43,0,0,0-4,2l1,2,5-3ZM48.375,293.5l-2.477.844L44,295c4.158,1.315,6.888.344,11-1v-2A19.162,19.162,0,0,0,48.375,293.5ZM634,293c1.655,3.31,4.654,3.789,8,5l3-1q-2.184-1.006-4.375-2l-2.461-1.125C636.08,292.875,636.08,292.875,634,293Zm-274,2,1,2,11-2v-1A55.406,55.406,0,0,0,360,295Zm391,1,1,2,7-3C755.377,293.792,754.359,294.457,751,296Zm-811-1,.563,2.938L-59,301l-1,1c-.458,3.588-.837,7.18-1.207,10.777C-62,316-62,316-64.012,317.379L-66,318l-1,1c-4.433.559-7.943.6-11.875-1.625A28.754,28.754,0,0,1-84,309a103.568,103.568,0,0,0-6.687,9.938l-2.129,3.484-1.094,1.8q-2.593,4.243-5.214,8.471Q-101.064,335.842-103,339l-1.8,2.934-1.637,2.691-1.433,2.352A14.73,14.73,0,0,0-110,352q6.484.148,12.97.22,2.2.03,4.408.082c2.118.049,4.234.071,6.352.089l3.856.063c6.027-.8,9.321-5.256,13.413-9.454l2.105-1.766c2.447-2.885,2.482-4.745,2.645-8.484l.172-3.266c.039-1.229.039-1.229.078-2.484h3l1,3h2l1-3a17.078,17.078,0,0,1,4-1v4h2v-3l5-1,1,4h2l1-3h3l1,3,3-1v-2l4-1v4h3l1-3h3l1,3h2l1-3h5l-1,3h3v-4a18.738,18.738,0,0,1,4,1l2,3v-7l-3-1,3-6,.938-2.312C-5,312-5,312-2.875,311.25L-1,311v-2l-2.519-.32q-4.69-.6-9.377-1.224-3-.395-6-.77A87.915,87.915,0,0,1-39,302q-4.937-1.494-9.887-2.937A71.4,71.4,0,0,1-58,295Zm125,1v30l2,1,1,3h2l1-3,4-1v15l3-1,2,3h2c1.226-2.453,1.114-4.051,1.1-6.789,0-1.412,0-1.412-.01-2.852-.008-.984-.017-1.969-.025-2.984,0-.993-.009-1.985-.014-3.008Q83.031,323.683,83,320l-3.324-.418C75.3,318.889,73.807,318.449,71,315a77.755,77.755,0,0,1-1.641-9.418c-.085-2.508-.085-2.508-1.359-3.582-.233-4.535-.233-4.535,1-7C66.925,294.851,66.925,294.851,65,296Zm100-1a20.576,20.576,0,0,0,9.25,2.625l2.7.227L179,298v-2Zm710.75,2.313c-3.544,2.035-7.077,3.851-10.75,5.687v19l9,1c.321,8.179-1.646,12.111-7,18l-2,1v4h17V295C879.355,295,878.036,295.995,875.75,297.313ZM-31,296v2l9,1-1-2a16.466,16.466,0,0,0-4.062-.625Zm63,1-1,2,6-1v-1Zm152,0a17.926,17.926,0,0,0,4,2l3-1Zm664-1-2,1,1,2,2-1Zm-870,3,2,2h3v-2Zm50,0,1,2,1-2Zm167,0,4,1Zm-208,1,1,2H2c-3.988-1.994-5.471-2.227-9.75-2.125l-2.984.055Zm32,0v2h2v-2Zm184,0,4,1Zm640-1q-3.54,1.4-7,3c3.072,1.4,3.072,1.4,6.188-.437L845,300ZM7,302h6v-2C10.537,300,9.148,300.855,7,302Zm41.438,0L42,304v22l3,1,1,3h2l1-3h5v3h2V300C53.524,300,50.758,301.279,48.438,302ZM223,301v1l14,1v-2Zm19,0v2h15v-1Zm45,0-1,2,9-1v-1Zm13,0v1h6v-1Zm353,0c.793,2.17.793,2.17,2.848,2.633l2.215.492,2.222.508L662,305v-2Zm81.25,1.438-2.422.871L730,304l1,2,12-4C738.876,300.969,738.016,301.053,734.25,302.438ZM471,302v8h39v-8Zm-549,1,1,4h11v-4Zm152,0,1,4h8v-4Zm691,1v2l-1.937.25a54.611,54.611,0,0,0-7.813,2.563l-2.359.957c-2.081,1.082-2.081,1.082-2.657,3.367-.116.922-.116.922-.234,1.863a32.454,32.454,0,0,0,8.938-.5c3.335-.809,6.639-.557,10.062-.5V303C766.925,302.851,766.925,302.851,765,304Zm-135,2v14c4.491.6,4.491.6,9,1l1-1c2.655-.455,5.322-.7,8-1v-6h-3v-2q-3.184-1.256-6.375-2.5l-3.586-1.406C632.225,305.887,632.225,305.887,630,306Zm37,0,1,2c5.972,1.925,5.972,1.925,12,1q-2.687-.754-5.375-1.5l-3.023-.844A9.545,9.545,0,0,0,667,306ZM28,307v19l4,1-1,3h3v-4h3V306C33.479,305.918,33.479,305.918,28,307Zm85,0c-.648,11.01-1.073,18.968,6,28q1.43,2.3,2.813,4.625c.7,1.144,1.417,2.277,2.187,3.375h1c.233-4.541.375-9.08.5-13.625.067-1.285.134-2.57.2-3.895.343-6.748.343-6.748-2.379-12.647A33.663,33.663,0,0,0,117,309l-2.264-1.139Zm24,0c2.517,2.517,4.576,3.11,8,4a21.888,21.888,0,0,0,4-1q-2.154-.759-4.312-1.5l-2.426-.844C139.912,306.861,139.912,306.861,137,307Zm18,0c.792,2.165.792,2.165,2.82,2.633A54.373,54.373,0,0,0,172,311v-2C163.572,307.276,163.572,307.276,155,307Zm213.438,0L362,308v14c2.765,1.382,5.046,1.1,8.125,1.063L376,323V306A50.423,50.423,0,0,0,368.438,307ZM381,307v15c2.522,1.447,2.522,1.447,8,1V311Zm468.375,3.5-2.141,1.012Q844.615,312.751,842,314v8h18l-1-15C855.512,307,852.477,309.018,849.375,310.5ZM19,308v19l4-1V308Zm-9,1,1,3h2v-3Zm704.875,0-2.2.563L711,310v1q2.22-.171,4.438-.375l2.5-.211L720,310l1-2A23.179,23.179,0,0,0,714.875,309ZM92,310a21.468,21.468,0,0,0-3.293,12.492c.01,1.2.019,2.4.029,3.633.025,1.237.05,2.475.076,3.75s.027,2.521.041,3.82q.053,4.653.146,9.3l1-3a26.713,26.713,0,0,1,4,1l1,2c2.124.226,2.124.226,3.625-1.5L100,340l2,3h2c2.854-4.281,2.744-7.974,2-13a51.963,51.963,0,0,0-5-9H99l-.812-2.687A32.685,32.685,0,0,0,94,310Zm85,0v4q2.655.293,5.313.563l2.988.316c2.8.287,2.8.287,5.7-.879v2l4-1-1-4A101.532,101.532,0,0,0,177,310Zm509,0,1,2Zm-290,1c-1.286,1.06-1.286,1.06-1.1,3.5.012,1.009.024,2.019.036,3.059.009,1.011.018,2.023.027,3.066.011.782.023,1.565.035,2.371l6-1-1-11Zm411.813-.062L806,312l7-1C810.108,309.667,810.108,309.667,807.813,310.938ZM154,313a17.93,17.93,0,0,0,8.188,3.125l2.73.508L167,317l1-2q-2.373-.507-4.75-1l-2.672-.562A19.879,19.879,0,0,0,154,313Zm46,0v4c5.083.113,5.083.113,10-1v2h3l-1-5Zm605-1-5,1,1,2,5-1Zm-583,2,1,5,2.668.184,3.52.254,3.48.246A65.952,65.952,0,0,1,241,321v-6a48.461,48.461,0,0,0-12.312-1.062l-3.8.027Zm71,0v9q2.406.041,4.813.063l2.707.035c2.614.012,2.614.012,5.48-1.1v-8Zm449,0,4,1Zm-496,1v4c3.6,2.4,6.509,2.438,10.688,2.625l2.126.117q2.594.141,5.186.258l1-7Zm24,0v7h17v-7Zm383,0v3h5l1-2Zm127,1c1.754,2.214,1.754,2.214,3.91,2.047l2.153-.3,2.16-.266L790,317l1-2A83.443,83.443,0,0,0,780,316Zm-603,1,2,2a14.11,14.11,0,0,0,4-1Zm652,2v5l8-2v-6C833.92,316,831.689,317.6,829,319Zm-61-2-7,1v1h8Zm-577,3,4,2v-2Zm9,1c2.676,2.185,2.676,2.185,5,2v-2Zm454,1v2l14-2v-1A75.539,75.539,0,0,0,654,322Zm-444,0,4,1ZM-2,323v5H10v-5Zm232,1v1h11v-1Zm409.25-.5-2.422.281L635,324v1q2.687.081,5.375.125l3.023.07c2.765.077,2.765.077,4.6-2.2A72.863,72.863,0,0,0,639.25,323.5ZM812,323l-2,1v2h3Zm126,1,1,3Zm-795,1,1,2Zm127,1v2h12v-1Zm23,1v1h9v-1Zm72,0v2h11v-2Zm19,0,1,2h4v-2Zm11,0,4,1Zm12,0v1h11v-1Zm200,0,4,1Zm9,0v1a35.977,35.977,0,0,0,6,0l2-2A36.108,36.108,0,0,0,616,327Zm77,0v2l-8,1q-.043,4.938-.062,9.875c-.009.937-.017,1.874-.026,2.84,0,.9-.006,1.792-.01,2.715-.005.827-.01,1.655-.016,2.507-.02,2.127-.02,2.127,1.114,4.063h10l1-3,2-1V327Zm-132,1v2h8v-2Zm18,0,1,2,12-1v-1Zm17,0,4,1Zm111,0v5l4-1Zm182,0-1,3,1,2h4l-1-5Zm48,0c-.65,1.64-.65,1.64-1.312,3.313A16.982,16.982,0,0,1,931,338v2l-4,2,1,4,10,1V328Zm-771,1v1l-5,1v21h10c1.226-2.453,1.114-4.051,1.1-6.789,0-.941-.007-1.882-.01-2.852s-.017-1.969-.025-2.984c-.005-.993-.01-1.985-.014-3.008q-.018-3.684-.049-7.367Zm11,1q-.044,4.938-.062,9.875c-.009.937-.017,1.874-.026,2.84,0,.9-.006,1.792-.01,2.715,0,.827-.01,1.655-.016,2.507-.02,2.127-.02,2.127,1.114,4.063h15c1.587-3.174,1.143-6.582,1.125-10.062,0-.746.008-1.492.012-2.26.335-3.637.335-3.637-1.137-6.678-1.93-.233-3.861-.464-5.793-.68A61.249,61.249,0,0,1,178,330Zm-46,1v12h2V331Zm622,0c-2.627,4.926-2.145,9.556-2,15h18v-5l-3.312-.5C762,339,762,339,760.867,337.086A57.576,57.576,0,0,1,759,331Zm12,0,1,5,3-1-1-4Zm-90.141.934a69.859,69.859,0,0,1-11.609,2.129A49.936,49.936,0,0,0,653,336v14h2v2h24l1-21C677.773,330.9,677.773,330.9,674.859,331.934ZM-60,334v4l3-1-1-3Zm7,0v4h3v-4Zm7,0v4h3v-4Zm7,0v4l4-1v-3Zm8,0v4l4-1v-3Zm7,0v4h4v-4Zm8,0v4h3v-4Zm8,0-1,4h6a31.274,31.274,0,0,0-3-4Zm27,0,1,4Zm12,0-1,4h4v-4Zm15,0v4h3v-4Zm7,0v4h3v-4Zm15,0v4h3v-4Zm132,0q-.081,3.657-.125,7.313c-.017.69-.034,1.38-.051,2.091-.036,3.767.032,5.38,2.176,8.6a13.12,13.12,0,0,0,4.625.188l2.477-.083L211,352v-4h2V335Zm-58,1v7l2-1v-2h5v-4Zm81,1-1,12h3v4h15c1.442-2.884,1.094-5.417,1.063-8.625-.021-2.1-.042-4.207-.063-6.375Zm415.438,1-2.444.289L630,338q-.04,2.937-.062,5.875c-.012,1.091-.024,2.181-.036,3.3-.1,2.772-.1,2.772,1.1,4.82h16c1.5-3,1.093-5.791,1.063-9.125-.01-1.281-.019-2.563-.028-3.883-.011-.987-.023-1.975-.035-2.992A82.269,82.269,0,0,0,638.438,337ZM246,338q-.04,2.937-.062,5.875c-.012,1.091-.024,2.181-.036,3.3-.1,2.772-.1,2.772,1.1,4.82h16c1.322-2.645,1.1-4.678,1.063-7.625-.01-1-.019-2.006-.028-3.039-.011-.771-.023-1.542-.035-2.336-3.754-1.2-7.332-1.1-11.25-1.062l-3.828.027Zm642,1v7h15l1-4c-3.325-1.108-5.622-.845-9,0v-2Zm-618,1q-.041,2.438-.062,4.875c-.012.9-.024,1.81-.036,2.742-.065,2.4-.065,2.4,1.1,4.383h2V340Zm125,0q-.041,2.438-.062,4.875c-.012.9-.024,1.81-.036,2.742-.065,2.4-.065,2.4,1.1,4.383h2c2.6-3.9,2.151-7.474,2-12Zm12,0c-.323,7.394-.323,7.394,1,12h24V342h-6v-2Zm200,1q-.062,3.5,0,7h2v4h14c1.262-2.525,1.1-4.312,1.063-7.125-.01-.91-.019-1.82-.028-2.758-.011-.7-.023-1.4-.035-2.117q-3.969-.041-7.937-.062l-2.288-.026C610.088,339.535,610.088,339.535,607,341Zm100-1v6h13l1-4c-2.888-1.138-2.888-1.138-5.625-1H713l-1-1Q709.5,339.939,707,340Zm-128,1v11h20c1.283-4.445,1.283-4.445,1-11Zm-138,1v10h48V342Zm56,0v10h49V342Zm58,0v10h14V342Zm188,0v2h2v-2Zm32,0v4h2l1-3Zm25,0-2,2h2v2h2v-4Zm42,1,1,2,1-2ZM75,347v5h1v-5Zm5,0v5h2l1-5Zm9,0,1,3Zm5,0v5h3v-5Zm8,0v5h2l1-5Zm14,0v5l3-1Zm15,0,1,5h1v-5Zm807,1,1,2Z" transform="translate(192)"/>
</svg>
