<svg id="Layer_1" data-name="Layer 1" xmlns="http://www.w3.org/2000/svg" viewBox="0 0 72.85106 16.67969"><defs><style>.cls-1{font-size:12px;font-family:BalooDa2-ExtraBold, "Baloo Da 2";font-weight:800;}.cls-1,.cls-4{fill:#fff;}.cls-2{fill:#4474ba;letter-spacing:-0.01001em;}.cls-3{letter-spacing:0.00004em;}</style></defs><text class="cls-1" transform="translate(0 9.61182)">Sha<tspan class="cls-2" x="20.15967" y="0">₹</tspan><tspan class="cls-3" x="26.83154" y="0">e.</tspan></text><path class="cls-4" d="M170.53271,373.55762a2.99319,2.99319,0,0,1,.41407-.1377,2.116,2.116,0,0,1,.56982-.07812,2.06159,2.06159,0,0,1,.83985.1499.65729.65729,0,0,1,.4082.438q.18018.65991.32373,1.20019.14428.53981.28223,1.04395.13769.50391.27,1.06787h.06006q.14356-.98364.2461-1.854.10181-.87012.19775-1.70411.096-.83349.1919-1.69775a1.93566,1.93566,0,0,1,.94824-.252,1.481,1.481,0,0,1,.76806.19189.69207.69207,0,0,1,.32373.648,7.203,7.203,0,0,1-.05371.74414q-.0542.47974-.144,1.0918-.09009.6123-.21,1.26025-.12012.64746-.25195,1.25977-.13257.6123-.27,1.09179a5.67222,5.67222,0,0,1-.2583.74414,1.54928,1.54928,0,0,1-.58789.27,3.10079,3.10079,0,0,1-.83985.11426,2.58655,2.58655,0,0,1-.94824-.15625.73386.73386,0,0,1-.48-.41992q-.096-.32373-.21582-.72021-.12012-.39552-.24609-.86963-.126-.47388-.25782-1.002-.10839.51563-.228,1.02588-.12012.50978-.23438.96-.11425.44972-.21.79785a1.52675,1.52675,0,0,1-.54.27,2.60571,2.60571,0,0,1-.792.11426,2.91128,2.91128,0,0,1-.97168-.15625.95377.95377,0,0,1-.57617-.41992,6.24065,6.24065,0,0,1-.27588-.81006q-.156-.54565-.32422-1.25976-.16773-.71412-.31787-1.48829t-.27-1.51806q-.12012-.74342-.18018-1.34375a1.683,1.683,0,0,1,.46826-.28809,1.59168,1.59168,0,0,1,.648-.13183,1.31818,1.31818,0,0,1,.75.19775.92591.92591,0,0,1,.36621.666q.20362,1.22386.32374,2.04.12011.81591.19189,1.332.07251.51635.11426.81006.04174.29442.07812.46191h.05957q.1084-.47973.2041-.88818.096-.40724.19825-.81592.1018-.408.21-.8877Q170.41235,374.17017,170.53271,373.55762Z" transform="translate(-131 -369.38818)"/><path class="cls-4" d="M179.77246,373.0415a3.66908,3.66908,0,0,1,2.09424.53418,1.86838,1.86838,0,0,1,.78564,1.66211v2.688a.74457.74457,0,0,1-.17382.50977,1.73283,1.73283,0,0,1-.41407.34228,3.1193,3.1193,0,0,1-.936.34766,5.95935,5.95935,0,0,1-1.25977.12012,3.71836,3.71836,0,0,1-2.022-.48584,1.83106,1.83106,0,0,1-.26416-2.74219,2.66651,2.66651,0,0,1,1.51807-.55176l1.57177-.168v-.084a.51484.51484,0,0,0-.30566-.498,2.05925,2.05925,0,0,0-.88232-.1499,4.10935,4.10935,0,0,0-.88184.0957,4.70057,4.70057,0,0,0-.78613.24024.83131.83131,0,0,1-.26368-.33008,1.03965,1.03965,0,0,1-.10839-.46192.83705.83705,0,0,1,.6123-.81591,3.58443,3.58443,0,0,1,.82178-.19239A7.21908,7.21908,0,0,1,179.77246,373.0415Zm.09619,4.71631a2.70936,2.70936,0,0,0,.44971-.042,1.08573,1.08573,0,0,0,.36621-.11426v-.96l-.86426.07227a1.32905,1.32905,0,0,0-.55176.144.38719.38719,0,0,0-.21582.35986.4764.4764,0,0,0,.186.39014A1.01558,1.01558,0,0,0,179.86865,377.75781Z" transform="translate(-131 -369.38818)"/><path class="cls-4" d="M183.96045,376.95361v-5.72412a3.4019,3.4019,0,0,1,.37793-.07178,3.70659,3.70659,0,0,1,.53418-.03613,1.45971,1.45971,0,0,1,.86377.19824.90616.90616,0,0,1,.26416.76172v4.87207Zm2.04-1.06787v3.15576a3.31238,3.31238,0,0,1-.37793.07227,3.71009,3.71009,0,0,1-.53418.03613,1.4342,1.4342,0,0,1-.85791-.2041.89712.89712,0,0,1-.27-.75586v-2.3042Z" transform="translate(-131 -369.38818)"/><path class="cls-4" d="M187.36816,376.95361v-5.72412a3.4019,3.4019,0,0,1,.37793-.07178,3.70669,3.70669,0,0,1,.53418-.03613,1.45969,1.45969,0,0,1,.86377.19824.90616.90616,0,0,1,.26416.76172v4.87207Zm2.04-1.06787v3.15576a3.31194,3.31194,0,0,1-.37793.07227,3.71,3.71,0,0,1-.53418.03613,1.4342,1.4342,0,0,1-.85791-.2041.89715.89715,0,0,1-.27-.75586v-2.3042Z" transform="translate(-131 -369.38818)"/><path class="cls-4" d="M191.62842,375.70557l2.772-.45606a.83972.83972,0,0,0-.91211-.71972,1.09308,1.09308,0,0,0-.79785.312,1.26464,1.26464,0,0,0-.34229.88769l.07227,1.0083a1.05118,1.05118,0,0,0,.5459.76807,2.078,2.078,0,0,0,.9541.21582,3.44085,3.44085,0,0,0,.96-.13184,3.483,3.483,0,0,0,.73193-.28808,1.00974,1.00974,0,0,1,.32422.33594.86143.86143,0,0,1,.13184.45605.832.832,0,0,1-.294.65381,1.83542,1.83542,0,0,1-.81.37793,5.27372,5.27372,0,0,1-1.188.12012,3.90449,3.90449,0,0,1-1.686-.354,2.74755,2.74755,0,0,1-1.188-1.062,3.7933,3.7933,0,0,1-.18017-3.144,2.55868,2.55868,0,0,1,.68994-.936,2.89966,2.89966,0,0,1,.96631-.53369,3.51409,3.51409,0,0,1,1.09765-.17432,3.19255,3.19255,0,0,1,1.48829.33008,2.53151,2.53151,0,0,1,.99609.8999,2.4123,2.4123,0,0,1,.35986,1.31446.8176.8176,0,0,1-.228.62353,1.1406,1.1406,0,0,1-.63624.27637l-3.75585.564Z" transform="translate(-131 -369.38818)"/><path class="cls-4" d="M197.32812,376.17383v-4.30811q.13185-.03588.37793-.07812a3.11849,3.11849,0,0,1,.522-.042,1.40579,1.40579,0,0,1,.85205.2041.90947.90947,0,0,1,.26416.75586v3.46826Zm2.01612-.28809v1.16406a.49614.49614,0,0,0,.19775.438.97.97,0,0,0,.55811.1377,2.40506,2.40506,0,0,0,.37207-.02979,2.06294,2.06294,0,0,0,.33594-.07812,1.15716,1.15716,0,0,1,.186.28808.98987.98987,0,0,1-.26416,1.13428,1.87887,1.87887,0,0,1-1.20557.29395,2.45867,2.45867,0,0,1-1.62646-.48,1.93391,1.93391,0,0,1-.56983-1.56006v-1.30811Zm-.69629-2.53222H200.916a1.58786,1.58786,0,0,1,.13818.32421,1.43853,1.43853,0,0,1,.06592.44385.83112.83112,0,0,1-.186.606.67114.67114,0,0,1-.498.186H198.648Z" transform="translate(-131 -369.38818)"/><text x="-131" y="-369.38818"/></svg>